<?xml version="1.0" standalone="no"?>
<!DOCTYPE svg PUBLIC "-//W3C//DTD SVG 20010904//EN"
 "http://www.w3.org/TR/2001/REC-SVG-20010904/DTD/svg10.dtd">
<svg version="1.0" xmlns="http://www.w3.org/2000/svg"
 width="600.000000pt" height="600.000000pt" viewBox="0 0 600.000000 600.000000"
 preserveAspectRatio="xMidYMid meet">
<g transform="translate(0.000000,600.000000) scale(0.100000,-0.100000)"
fill="#000000" stroke="none">
<path d="M2725 5599 c-220 -26 -515 -109 -721 -202 -281 -127 -564 -329 -772
-553 -96 -102 -317 -391 -389 -509 -335 -543 -447 -1158 -323 -1775 52 -260
168 -561 300 -775 65 -107 236 -351 303 -433 389 -478 988 -802 1616 -873 159
-18 515 -7 671 21 127 22 420 103 585 160 111 39 328 143 444 212 144 87 319
226 451 358 361 360 597 819 684 1330 39 227 44 670 12 895 -64 438 -236 841
-504 1180 -73 92 -257 280 -353 361 -212 177 -502 337 -806 443 -371 130 -543
163 -878 167 -132 1 -276 -2 -320 -7z m575 -35 c109 -12 121 -14 240 -41 14
-3 32 -7 40 -8 58 -10 81 -18 69 -26 -7 -4 -19 -3 -26 2 -7 6 -38 12 -70 14
-32 2 -78 6 -103 9 -81 11 -134 15 -202 15 -50 1 -66 4 -63 14 7 16 -200 5
-355 -19 -116 -17 -346 -74 -407 -99 -21 -9 -87 -29 -148 -45 -238 -62 -488
-168 -648 -275 -72 -47 -83 -52 -71 -33 5 7 3 8 -5 3 -10 -6 -11 -3 -2 14 14
25 23 28 14 4 -8 -19 -7 -19 92 47 308 206 644 338 1010 396 55 8 193 18 308
21 114 3 207 9 207 14 0 4 15 6 33 4 17 -3 57 -7 87 -11z m95 -74 c218 -20
423 -67 570 -132 265 -116 485 -269 726 -505 69 -68 130 -123 136 -123 11 0
21 -12 103 -124 28 -37 49 -70 47 -72 -8 -8 -179 165 -173 175 4 5 -26 37 -67
71 -225 188 -543 350 -835 425 -57 15 -135 41 -175 60 -258 117 -658 196 -927
182 -57 -3 -97 -1 -90 3 13 7 189 32 300 43 79 8 282 6 385 -3z m-696 -31 c-7
-4 -9 -14 -6 -23 5 -13 -1 -16 -31 -17 -20 0 -46 -3 -57 -5 -11 -2 -42 -6 -70
-8 -27 -2 -59 -7 -70 -11 -18 -6 -18 -6 -2 5 10 6 58 22 107 34 50 13 88 25
85 28 -3 2 9 5 25 5 17 0 26 -4 19 -8z m281 -69 c166 -12 316 -38 479 -85 73
-20 130 -31 140 -27 17 8 131 -41 115 -50 -5 -2 -13 -4 -19 -3 -5 1 -34 5 -62
10 -29 4 -50 11 -48 16 18 27 -333 31 -515 5 -198 -28 -435 -97 -570 -166 -23
-12 -83 -28 -133 -36 -282 -45 -558 -155 -809 -320 -123 -81 -173 -127 -164
-151 4 -10 4 -14 0 -10 -4 4 -20 -7 -35 -24 -20 -22 -32 -28 -43 -22 -13 7
-10 15 19 47 19 22 32 42 30 47 -3 4 -1 10 4 13 5 4 12 2 16 -4 3 -5 50 41
104 103 185 210 392 374 633 502 205 108 312 138 553 155 162 11 159 11 305 0z
m1040 -15 c0 -2 -9 -3 -19 -2 -11 0 -18 5 -15 9 4 6 34 0 34 -7z m-1710 -19
c0 -2 -7 -7 -16 -10 -8 -3 -12 -2 -9 4 6 10 25 14 25 6z m-40 -11 c0 -2 -39
-23 -87 -46 -49 -23 -95 -48 -103 -54 -31 -25 -46 -24 -45 2 0 19 8 28 35 38
19 7 44 16 55 21 24 9 22 8 68 17 20 5 37 11 37 15 0 4 9 8 20 9 11 1 20 0 20
-2z m1869 -21 c31 -14 75 -35 98 -46 23 -11 45 -18 48 -16 4 2 11 -5 16 -14 5
-9 23 -19 39 -23 17 -4 30 -11 30 -16 0 -5 6 -9 13 -9 8 0 24 -9 37 -20 13
-11 29 -20 37 -20 8 0 11 -5 7 -12 -5 -8 -2 -9 9 -5 10 3 17 2 17 -4 0 -6 5
-7 11 -3 7 4 7 -1 -1 -16 -6 -12 -9 -28 -6 -36 8 -21 -7 -17 -22 6 -7 11 -17
20 -23 20 -6 0 -28 13 -49 30 -20 16 -41 26 -45 22 -5 -4 -5 -2 -2 5 4 6 -5
15 -23 22 -17 5 -30 14 -30 20 0 5 -16 15 -35 22 -19 7 -32 15 -30 18 3 3 -12
13 -32 24 -105 52 -147 76 -134 76 8 1 39 -11 70 -25z m-2109 -78 c0 -2 -28
-20 -63 -39 -105 -59 -266 -185 -390 -306 -126 -123 -205 -218 -302 -360 -33
-49 -95 -128 -139 -177 -207 -234 -381 -548 -457 -824 -11 -41 -23 -83 -26
-94 -3 -13 -1 -16 7 -11 14 9 9 -42 -14 -132 -8 -32 -17 -69 -19 -83 -2 -14
-5 30 -6 97 -1 91 2 124 12 130 8 5 23 64 36 142 52 307 161 596 323 856 121
193 366 427 618 591 69 44 395 214 413 214 4 0 7 -2 7 -4z m1663 -50 c123 -23
242 -85 436 -229 186 -139 350 -316 490 -530 35 -54 69 -96 75 -94 11 4 36
-36 36 -59 0 -8 5 -14 11 -14 5 0 7 -4 4 -10 -3 -5 -2 -10 3 -10 6 0 13 -8 16
-17 4 -11 -4 -7 -19 10 -13 15 -28 28 -32 28 -14 2 -56 39 -44 39 16 0 13 18
-6 39 -35 35 -166 131 -248 181 -190 115 -395 193 -602 231 -94 17 -131 29
-183 59 -291 168 -618 260 -924 260 -81 0 -109 -6 -99 -23 4 -6 0 -8 -9 -4 -9
3 -32 2 -52 -3 -23 -5 -34 -4 -30 2 4 6 -2 7 -17 3 -30 -9 -23 -2 19 18 18 8
29 11 26 5 -4 -6 3 -4 17 5 26 19 43 22 34 7 -8 -14 -12 -14 106 24 137 44
261 74 384 91 134 19 486 14 608 -9z m154 -11 c0 -8 -4 -12 -9 -9 -5 3 -6 10
-3 15 9 13 12 11 12 -6z m37 -2 c7 -7 30 -14 58 -16 9 -1 14 -6 11 -11 -4 -5
1 -7 9 -3 19 7 38 -11 31 -29 -3 -9 0 -12 9 -9 8 3 70 -17 138 -45 300 -123
527 -276 755 -507 88 -89 121 -131 162 -205 174 -316 275 -705 272 -1048 l-1
-105 -13 62 c-67 309 -235 638 -450 882 -36 41 -87 116 -116 170 -144 269
-346 510 -570 678 -126 95 -167 119 -181 105 -8 -8 -21 -3 -47 19 -19 16 -41
29 -47 29 -6 0 -19 9 -29 20 -16 18 -8 30 9 13z m632 -72 c-3 -5 47 -51 112
-102 382 -305 657 -693 806 -1139 27 -80 53 -149 59 -155 7 -7 8 -4 4 8 -4 11
-3 16 4 12 6 -4 8 -14 5 -22 -4 -9 -2 -21 2 -27 13 -16 21 -52 47 -226 15
-101 28 -276 20 -268 -3 3 -14 61 -25 129 -11 68 -32 163 -45 210 -14 47 -27
94 -29 105 -2 10 -9 32 -15 47 -15 38 -14 42 4 27 23 -19 -35 142 -100 278
-70 145 -137 256 -233 384 -43 57 -102 139 -131 183 -134 201 -295 376 -480
523 -20 16 -23 42 -5 42 3 0 3 -4 0 -9z m-2846 -5 c0 -2 -8 -10 -17 -17 -16
-13 -17 -12 -4 4 13 16 21 21 21 13z m-124 -69 c-4 -18 -3 -18 15 2 11 11 23
21 26 21 4 0 -4 -11 -17 -25 -12 -13 -26 -22 -31 -20 -4 3 -14 -2 -22 -10 -9
-8 -20 -15 -26 -15 -6 0 -11 -3 -11 -7 0 -5 -21 -21 -48 -37 -26 -16 -67 -50
-91 -75 -63 -65 -112 -102 -124 -94 -6 4 -8 0 -4 -11 4 -10 3 -15 -3 -11 -6 3
-10 1 -10 -5 0 -6 -5 -8 -12 -4 -8 5 -9 2 -4 -12 4 -10 4 -15 0 -11 -5 4 -14
-3 -21 -15 -10 -18 -12 -19 -13 -6 0 23 59 90 72 82 6 -4 9 -1 6 6 -2 7 24 39
59 72 34 32 59 58 56 58 -4 0 7 10 23 23 16 12 45 37 63 55 19 17 38 32 43 32
5 0 6 4 3 10 -4 6 1 7 12 3 10 -3 15 -3 11 2 -4 4 0 14 10 21 22 16 46 -2 38
-29z m859 -16 c-3 -5 -19 -17 -36 -25 -24 -12 -34 -13 -50 -3 -18 11 -18 12 1
22 25 13 93 18 85 6z m420 -2 c232 -20 425 -71 630 -168 l120 -56 -145 -6
c-280 -12 -541 -92 -762 -233 -50 -31 -60 -33 -168 -39 -132 -7 -289 -35 -404
-73 -106 -34 -283 -120 -369 -178 -76 -50 -77 -48 -17 51 169 278 388 490 680
659 55 31 78 38 145 44 124 11 161 11 290 -1z m-571 -65 c-252 -151 -497 -422
-643 -709 -41 -82 -62 -110 -115 -157 -197 -176 -389 -474 -481 -748 l-35
-105 0 159 c0 334 84 664 243 956 96 176 464 437 772 549 110 40 273 89 299
90 11 1 -7 -15 -40 -35z m1376 -164 c8 -5 11 -10 5 -10 -5 0 -3 -5 5 -10 11
-8 5 -9 -20 -5 -40 7 -44 10 -35 24 8 14 25 14 45 1z m82 -34 c10 6 11 4 0 -7
-10 -11 -15 -10 -30 6 -15 17 -15 18 0 6 9 -7 23 -9 30 -5z m63 -18 c1 -2 0
-11 -4 -21 -6 -17 -8 -17 -29 1 -12 10 -19 22 -16 25 5 5 44 1 49 -5z m-27
-65 c106 -80 245 -223 320 -329 60 -84 182 -313 182 -341 0 -7 9 -18 20 -25
20 -13 26 -38 14 -51 -12 -12 -25 4 -14 18 23 27 -212 144 -381 190 -116 31
-281 47 -374 37 l-70 -7 -70 59 c-169 144 -337 224 -569 270 l-108 22 108 56
c232 120 456 170 727 163 l138 -3 77 -59z m165 11 c285 -72 573 -233 785 -438
43 -41 59 -67 87 -141 106 -273 144 -553 115 -850 -7 -74 -16 -135 -19 -135
-3 0 -16 33 -29 73 -73 232 -252 500 -439 659 -74 63 -81 73 -101 136 -32 100
-104 243 -180 357 -62 94 -233 280 -322 350 -19 15 -27 24 -16 21 10 -3 64
-18 119 -32z m-2773 0 c0 -8 -5 -12 -10 -9 -6 4 -8 11 -5 16 9 14 15 11 15 -7z
m390 -8 c0 -2 -7 -7 -16 -10 -8 -3 -12 -2 -9 4 6 10 25 14 25 6z m-232 -180
c-15 -13 -25 -26 -22 -28 2 -3 -3 -5 -13 -5 -12 0 -10 6 10 23 14 12 23 25 20
28 -4 3 2 6 13 6 17 -1 16 -4 -8 -24z m1391 1 c11 -16 10 -17 -5 -9 -9 5 -26
7 -37 4 -18 -5 -19 -3 -7 10 19 20 35 19 49 -5z m2306 13 c3 -6 -1 -7 -9 -4
-18 7 -21 14 -7 14 6 0 13 -4 16 -10z m-2410 -40 c-3 -5 -13 -6 -21 -3 -12 4
-13 8 -3 14 15 9 32 2 24 -11z m-143 -98 c-168 -170 -277 -364 -326 -582 -4
-18 -20 -32 -58 -50 -177 -85 -380 -296 -482 -500 -24 -49 -47 -83 -49 -76 -3
7 -13 59 -22 115 -24 142 -17 416 14 551 24 105 77 268 94 288 6 8 61 47 122
87 241 161 473 239 787 264 9 0 -26 -42 -80 -97z m341 73 c181 -32 347 -102
483 -203 113 -84 114 -87 57 -102 -197 -55 -378 -184 -459 -329 l-28 -49 -56
28 c-85 42 -172 60 -296 60 -105 0 -245 -24 -295 -50 -24 -13 -24 -17 5 72 69
212 193 393 369 540 67 55 79 57 220 33z m-1841 -24 c-8 -4 -13 -11 -12 -15 1
-4 -6 -18 -16 -31 -9 -12 -16 -24 -15 -26 2 -2 -19 -44 -45 -94 -26 -49 -46
-91 -45 -93 1 -1 -6 -16 -15 -33 -8 -17 -17 -38 -19 -47 -11 -51 -62 -179 -77
-192 -20 -17 -59 -159 -82 -295 -24 -140 -34 -326 -36 -620 -1 -322 15 -473
72 -680 9 -34 12 -37 19 -20 7 17 8 18 10 3 1 -10 2 -21 3 -25 5 -21 50 -160
56 -173 4 -8 15 -40 25 -70 10 -30 30 -78 45 -107 21 -39 24 -53 14 -57 -7 -3
-16 4 -20 17 -4 12 -14 28 -23 35 -9 8 -10 11 -4 7 9 -4 11 -1 7 9 -3 9 -10
13 -15 10 -5 -3 -9 -2 -7 3 2 8 -4 21 -62 148 -41 88 -71 181 -64 199 3 7 -9
64 -25 127 -93 350 -111 713 -50 1052 21 120 65 295 98 391 16 45 18 63 10 78
-8 15 -8 19 1 13 7 -4 10 -2 9 6 -4 23 25 85 147 314 32 60 84 137 98 147 6 4
7 8 3 8 -5 0 -5 5 -2 10 3 6 12 10 18 10 8 0 8 -3 -1 -9z m4132 -22 c-3 -5 -1
-9 3 -9 5 0 16 -12 25 -27 9 -16 33 -46 52 -68 19 -22 32 -43 30 -47 -2 -4 2
-10 9 -15 7 -4 23 -26 36 -47 14 -26 17 -35 7 -27 -9 8 -16 11 -16 7 0 -3 30
-66 66 -139 206 -410 295 -838 250 -1195 -40 -313 -139 -607 -299 -886 -70
-122 -77 -136 -52 -116 18 15 20 7 3 -12 -7 -7 -26 -32 -42 -55 -16 -24 -33
-43 -37 -43 -5 0 -9 -5 -9 -11 0 -11 -49 -77 -84 -114 -16 -16 -15 -13 4 20
67 116 84 148 86 160 2 14 45 85 51 85 2 0 1 -4 -2 -10 -3 -5 -2 -10 3 -10 14
0 64 118 106 247 78 244 107 442 106 728 0 110 2 295 6 410 7 224 -1 340 -37
515 -38 188 -119 427 -140 414 -5 -3 -9 0 -9 6 0 6 -5 8 -12 4 -6 -4 -8 -3 -5
2 7 13 -78 186 -87 177 -4 -4 -4 0 -1 8 3 9 -1 22 -9 29 -9 7 -13 16 -10 21 3
5 0 9 -5 9 -6 0 -11 5 -11 11 0 8 5 8 15 -1 8 -7 12 -16 9 -21z m-3890 -65
c-20 -38 -37 -70 -38 -71 -1 -1 -12 0 -24 4 l-22 5 21 29 c29 42 92 110 96
105 2 -2 -13 -35 -33 -72z m-67 -92 c-9 -10 -34 -62 -56 -117 -110 -279 -159
-615 -132 -915 11 -116 10 -151 -3 -248 -20 -143 -20 -377 -1 -527 18 -139 74
-360 115 -457 16 -40 28 -73 26 -75 -5 -6 -117 172 -169 267 -127 235 -217
535 -247 816 -9 83 -8 121 5 210 41 274 137 551 273 786 65 114 180 278 194
278 6 0 4 -8 -5 -18z m536 -43 c4 -15 2 -19 -9 -15 -7 3 -13 0 -11 -6 1 -6 -4
-13 -10 -15 -14 -5 -18 19 -5 31 4 4 8 12 8 17 3 18 4 20 13 15 5 -3 11 -15
14 -27z m3192 -67 c27 -31 42 -51 32 -43 -13 10 -20 11 -31 2 -10 -8 -16 -8
-23 1 -14 20 -42 98 -35 98 4 0 29 -26 57 -58z m-1388 -2 c5 0 10 -7 10 -15 0
-13 -4 -12 -21 4 -12 10 -31 17 -43 16 -16 -1 -20 2 -13 10 5 7 6 16 2 20 -4
5 7 -1 25 -13 17 -12 35 -22 40 -22z m-1885 -37 c-11 -16 -20 -31 -21 -35 -1
-11 -9 -10 -29 1 -16 10 -16 10 1 11 9 0 16 5 15 12 -2 7 2 12 9 13 7 0 18 6
25 13 20 20 20 14 0 -15z m2290 -6 c122 -32 239 -83 345 -149 79 -50 83 -54
93 -100 26 -123 32 -200 27 -328 -7 -151 -21 -224 -68 -353 l-31 -88 -35 53
c-83 126 -186 222 -298 280 -74 38 -160 68 -194 68 l-26 0 0 128 c0 92 -6 145
-19 192 -23 82 -86 209 -138 279 l-41 54 144 -6 c108 -4 168 -11 241 -30z
m-392 -44 c99 -135 153 -283 154 -422 1 -126 -4 -137 -61 -146 -121 -17 -213
-91 -213 -170 0 -38 41 -75 85 -75 75 0 139 49 192 146 l28 52 73 -19 c103
-26 202 -81 288 -161 71 -67 174 -205 174 -233 0 -26 -124 -178 -189 -232 -75
-62 -179 -116 -266 -138 -89 -23 -102 -21 -115 19 -42 128 -187 210 -256 145
-77 -72 28 -200 186 -227 l45 -8 3 -84 c4 -103 -9 -176 -48 -270 -33 -81 -103
-191 -149 -234 l-31 -30 -73 23 c-192 61 -349 186 -425 337 l-21 41 29 21 c36
27 83 96 100 145 36 111 -57 200 -139 132 -47 -40 -64 -99 -59 -199 l4 -85
-49 -21 c-157 -68 -351 -64 -551 10 l-59 22 6 127 c3 69 13 153 22 186 26 95
82 200 144 265 l56 61 54 -26 c102 -50 207 -42 246 19 15 22 16 31 5 57 -28
66 -145 84 -249 39 l-54 -24 -49 55 c-103 113 -151 259 -152 452 -1 151 -6
144 117 177 172 47 346 36 484 -30 l62 -29 -10 -33 c-15 -55 -10 -149 11 -195
19 -43 69 -83 102 -83 10 0 32 13 50 29 29 26 32 34 32 82 0 64 -26 119 -84
180 l-40 43 32 54 c52 86 165 185 272 237 73 37 184 77 229 84 4 0 29 -29 57
-66z m1499 -118 c162 -237 269 -507 321 -809 22 -132 21 -152 -26 -341 -67
-265 -199 -532 -371 -753 -38 -48 -69 -91 -69 -97 -1 -5 -3 -13 -4 -17 -1 -5
-3 -12 -4 -16 -2 -15 -57 -64 -64 -57 -4 3 1 20 11 36 9 17 17 37 17 45 0 16
12 18 25 5 6 -6 11 -2 12 12 1 12 17 67 37 122 91 259 118 588 70 859 -13 79
-13 95 0 155 64 288 42 711 -51 946 -8 22 -17 47 -20 55 -8 25 44 -39 116
-145z m-3465 53 c-85 -252 -93 -606 -19 -860 12 -41 11 -53 -6 -108 -56 -180
-78 -396 -60 -580 12 -118 44 -278 62 -311 42 -79 -112 102 -204 240 -116 173
-222 430 -262 633 -17 82 -17 90 0 160 56 233 169 476 305 658 33 45 200 238
207 240 1 0 -9 -32 -23 -72z m2802 -57 c-4 -5 8 -21 24 -35 17 -14 29 -29 28
-33 -6 -15 -29 -11 -38 8 -6 10 -8 19 -4 19 4 0 0 8 -9 18 -10 10 -14 22 -10
25 9 10 15 8 9 -2z m155 -189 c104 -109 184 -221 248 -343 54 -104 112 -255
131 -339 12 -53 11 -61 -20 -150 -78 -228 -198 -418 -373 -593 -65 -66 -120
-117 -122 -115 -2 1 3 28 11 58 8 30 18 104 22 163 14 195 -11 377 -73 530
-14 35 -25 68 -25 73 0 6 11 32 24 60 80 167 115 384 95 592 -11 125 -22 167
-41 156 -7 -4 -8 -3 -4 4 11 19 36 1 127 -96z m-2311 18 c-27 -37 -40 -46 -40
-25 0 16 37 54 53 55 5 0 -1 -13 -13 -30z m711 -14 c-8 -10 -9 -16 -1 -21 12
-8 4 -25 -13 -25 -7 0 -6 4 3 10 14 9 6 15 -15 10 -5 -1 -1 8 9 19 21 23 35
29 17 7z m-759 -140 c-4 -120 19 -234 66 -338 30 -66 116 -186 138 -195 9 -3
-4 -22 -36 -54 -62 -62 -122 -162 -154 -259 -28 -85 -50 -255 -40 -308 l7 -36
-34 22 c-191 120 -335 285 -436 499 -63 133 -64 140 -5 258 64 128 137 231
231 325 69 69 231 189 256 190 6 0 9 -39 7 -104z m825 -3 c32 -54 30 -126 -3
-131 -46 -7 -85 91 -69 174 6 35 7 36 27 17 11 -10 31 -37 45 -60z m712 -156
c-17 -16 -23 -17 -30 -6 -11 19 21 50 39 36 10 -8 8 -14 -9 -30z m-49 -15 c0
-5 -14 -29 -31 -55 -47 -72 -120 -108 -148 -73 -29 35 35 96 127 121 26 7 48
14 50 14 1 1 2 -3 2 -7z m-170 -36 c0 -2 -8 -10 -17 -17 -16 -13 -17 -12 -4 4
13 16 21 21 21 13z m-2450 -156 c0 -5 6 -10 14 -10 16 0 15 -47 -2 -90 -11
-27 -9 -31 -27 83 -3 15 0 27 5 27 6 0 10 -4 10 -10z m4356 -30 c8 0 14 5 14
11 0 5 4 8 8 5 5 -3 5 -33 1 -67 -4 -34 -5 -68 -2 -75 2 -6 0 -15 -5 -18 -6
-3 -15 24 -22 62 -6 37 -14 76 -16 87 -2 11 -1 14 2 8 3 -7 12 -13 20 -13z
m-4709 -42 c-3 -8 -6 -5 -6 6 -1 11 2 17 5 13 3 -3 4 -12 1 -19z m4960 -30
c-3 -7 -5 -2 -5 12 0 14 2 19 5 13 2 -7 2 -19 0 -25z m-4039 -19 c-12 -33 -17
-33 -23 3 -4 18 0 24 14 25 17 1 18 -2 9 -28z m3342 -9 c10 0 20 3 23 8 2 4 2
0 0 -8 -3 -8 -7 -27 -10 -42 -3 -16 -9 -28 -13 -28 -4 0 -10 12 -13 28 -3 15
-7 34 -10 42 -2 8 -2 12 0 8 3 -5 13 -8 23 -8z m-2284 -34 c18 -14 18 -16 2
-32 -23 -23 -98 -22 -153 2 l-40 17 35 13 c48 17 132 17 156 0z m-213 -13 c-6
-15 -39 -18 -47 -4 -7 10 7 17 34 17 10 0 16 -6 13 -13z m-852 -7 c-1 -4 6
-21 15 -39 16 -29 16 -31 1 -18 -9 7 -24 11 -32 7 -19 -7 -19 4 0 30 8 12 12
24 10 28 -3 3 -2 4 1 2 3 -2 5 -7 5 -10z m2709 -4 c0 -5 -7 -9 -15 -9 -8 0
-12 4 -9 9 3 4 9 8 15 8 5 0 9 -4 9 -8z m-3256 -44 c8 -42 15 -89 9 -66 -4 15
-8 16 -25 7 -20 -11 -21 -10 -14 27 5 22 8 47 9 56 2 26 14 12 21 -24z m-367
10 c-3 -8 -6 -5 -6 6 -1 11 2 17 5 13 3 -3 4 -12 1 -19z m3609 -25 c-11 -11
-17 4 -9 23 7 18 8 18 11 1 2 -10 1 -21 -2 -24z m-2535 -294 c85 -115 185
-210 302 -287 76 -50 97 -68 97 -87 0 -41 50 -195 90 -280 54 -113 131 -224
222 -319 42 -44 76 -81 75 -82 -6 -6 -214 28 -277 45 -199 53 -389 149 -559
281 -78 61 -86 76 -125 231 -61 240 -63 478 -5 740 l13 56 52 -107 c29 -58 81
-144 115 -191z m-1061 224 c6 -38 13 -83 15 -102 2 -18 6 -36 9 -38 3 -3 0
-16 -5 -30 -20 -53 67 -328 171 -539 67 -137 189 -325 278 -431 34 -39 87
-114 118 -164 171 -276 407 -524 646 -679 48 -31 84 -61 80 -66 -4 -4 0 -3 9
4 20 15 36 13 60 -10 10 -10 30 -20 44 -24 14 -3 25 -10 25 -16 0 -5 6 -8 13
-7 19 3 47 -12 41 -23 -3 -5 0 -8 7 -7 21 4 59 -11 59 -23 0 -7 -5 -6 -14 1
-8 6 -18 11 -22 9 -12 -3 -168 54 -175 65 -3 5 -12 8 -20 7 -25 -4 -40 0 -35
8 9 15 -10 29 -135 94 -240 124 -419 258 -609 454 -63 66 -139 151 -167 189
-111 147 -237 419 -302 645 -50 175 -101 485 -85 512 6 10 5 11 -8 1 -8 -7
-17 -11 -19 -8 -3 2 -3 57 -2 122 3 136 2 123 7 123 2 0 9 -30 16 -67z m4265
20 c5 -28 4 -32 -13 -30 -16 1 -19 7 -17 27 2 14 4 32 4 40 1 23 18 -1 26 -37z
m-600 -230 c26 -148 17 -328 -23 -490 l-17 -68 -79 -47 c-191 -115 -468 -182
-665 -161 l-74 8 37 44 c124 148 199 365 181 528 l-7 63 29 0 c72 0 202 51
300 118 66 45 176 156 219 221 l29 44 27 -87 c16 -47 35 -125 43 -173z m1045
151 c0 -71 -2 -84 -13 -75 -8 6 -17 7 -22 3 -4 -4 -4 11 0 33 4 22 9 51 11 65
15 86 24 77 24 -26z m-4314 -100 c86 -257 226 -490 414 -685 68 -70 87 -98
123 -179 80 -176 191 -339 336 -492 140 -147 338 -301 349 -270 2 8 15 3 36
-13 18 -14 38 -25 44 -25 7 0 12 -4 12 -9 0 -4 -19 -5 -42 0 -24 4 -49 8 -55
9 -7 0 -13 6 -13 13 0 7 -56 30 -133 54 -293 95 -567 258 -791 473 -82 79 -93
94 -147 205 -107 223 -170 462 -191 725 -13 166 -3 394 15 330 5 -19 25 -81
43 -136z m3863 -122 c1 -229 -27 -401 -99 -605 -62 -176 -82 -209 -167 -282
-214 -184 -496 -324 -773 -385 -52 -11 -103 -23 -112 -26 -32 -10 -18 10 24
36 65 39 267 246 336 345 66 93 162 275 184 346 9 33 26 53 82 97 96 76 201
184 280 289 69 92 180 299 212 393 l18 55 7 -50 c4 -27 8 -123 8 -213z m-1391
114 c20 -19 48 -53 61 -76 l23 -42 -33 7 c-90 19 -171 89 -155 131 10 26 64
16 104 -20z m1812 -166 c-31 -328 -143 -669 -308 -942 -121 -200 -484 -481
-789 -612 -134 -57 -284 -108 -300 -102 -13 5 -14 4 -3 -9 10 -12 9 -16 -4
-20 -9 -3 -24 -8 -33 -12 -10 -3 -23 -7 -29 -8 -6 -2 -21 -6 -33 -10 -11 -3
-26 -3 -32 0 -6 4 18 21 53 37 35 17 65 35 67 40 2 6 7 5 11 -3 11 -17 36 -5
145 67 251 167 468 396 625 661 35 60 91 137 125 173 149 156 270 330 365 525
57 118 138 338 142 386 1 13 3 6 5 -16 3 -22 0 -92 -7 -155z m260 160 c0 -5
-4 -10 -10 -10 -5 0 -10 5 -10 10 0 6 5 10 10 10 6 0 10 -4 10 -10z m-14 -82
c-4 -35 -9 -76 -12 -93 -2 -16 -6 -46 -9 -65 -11 -80 -58 -251 -66 -239 -6 10
-10 9 -15 -6 -79 -220 -172 -418 -266 -568 -165 -264 -404 -514 -675 -705 -61
-42 -92 -71 -88 -79 2 -8 0 -11 -5 -8 -6 3 -10 1 -10 -4 0 -6 -7 -11 -15 -11
-8 0 -24 -9 -35 -20 -11 -11 -27 -20 -35 -20 -8 0 -15 -4 -15 -8 0 -13 -121
-63 -133 -55 -5 3 -7 1 -3 -5 3 -6 -13 -18 -41 -28 -27 -10 -57 -23 -68 -30
-11 -7 -36 -16 -55 -19 -19 -3 -40 -11 -46 -16 -8 -7 -15 -6 -20 2 -4 8 -3 9
4 5 7 -4 12 -3 12 2 0 9 40 25 65 26 6 1 18 9 27 19 9 10 19 18 23 17 11 -2
100 45 113 60 12 13 13 13 7 0 -6 -13 -5 -13 7 0 7 8 20 16 28 18 8 2 17 8 18
13 2 5 9 6 14 3 7 -4 8 -2 4 5 -4 6 0 14 11 18 10 3 38 20 62 36 24 17 54 31
67 31 66 4 363 284 509 481 49 66 110 145 135 175 160 189 303 429 379 634 18
47 19 57 6 53 -11 -5 -13 -2 -5 11 5 9 23 62 40 117 42 134 46 147 66 238 10
42 20 77 22 77 3 0 2 -28 -2 -62z m-2638 -40 c31 -31 2 -126 -57 -182 l-31
-30 0 61 c0 69 12 108 42 141 25 25 30 26 46 10z m698 3 c-4 -5 0 -11 6 -14
10 -4 11 -7 1 -18 -10 -9 -13 -10 -13 -1 0 7 -7 12 -16 12 -14 0 -14 3 -4 15
13 16 35 21 26 6z m-1509 -218 c-4 -3 -2 -12 4 -19 10 -12 7 -12 -30 -5 -5 1
20 31 27 31 3 0 2 -3 -1 -7z m733 -13 c13 -8 13 -11 1 -19 -9 -6 -12 -18 -8
-32 6 -23 5 -23 -8 -5 -16 21 -20 66 -7 66 4 0 14 -5 22 -10z m-697 -37 c3 -5
-1 -14 -9 -21 -11 -10 -15 -8 -24 8 -9 17 -8 20 9 20 11 0 22 -3 24 -7z m760
-180 c85 -104 256 -214 381 -246 l50 -13 -60 -45 c-127 -97 -254 -158 -411
-198 -91 -24 -265 -45 -292 -36 -33 10 -209 201 -266 288 -30 47 -69 116 -86
153 -32 71 -82 234 -75 241 2 3 17 -2 33 -10 77 -38 156 -52 308 -52 130 0
159 3 216 23 36 12 75 29 85 36 17 13 21 10 47 -38 15 -29 47 -75 70 -103z
m1412 7 c4 -6 12 -7 18 -4 7 4 -7 -11 -30 -33 -24 -22 -43 -48 -43 -57 0 -9
-7 -19 -16 -23 -8 -3 -38 -51 -65 -106 -59 -116 -82 -154 -160 -257 -92 -122
-271 -286 -390 -358 -30 -18 -51 -22 -125 -22 -288 0 -569 78 -807 222 l-59
36 54 6 c259 33 464 118 653 271 l52 42 59 -9 c83 -14 293 -3 389 21 113 28
217 66 308 114 69 37 83 51 78 80 -1 5 3 6 7 3 18 -11 47 34 51 77 1 10 19 9
26 -3z m-2817 -88 c7 7 13 4 21 -10 8 -15 7 -23 -2 -30 -10 -8 -20 -3 -42 20
-22 23 -24 28 -9 20 15 -8 24 -8 32 0z m121 -149 c2 -1 -2 -9 -9 -18 -16 -19
-34 -6 -49 36 l-10 30 32 -22 c18 -13 34 -24 36 -26z m1796 -16 c6 -5 3 -7 -7
-4 -9 3 -22 -1 -29 -9 -12 -15 -32 -15 -29 0 1 5 -4 13 -12 17 -8 6 0 6 20 3
23 -5 32 -3 32 6 0 8 3 9 8 4 4 -5 12 -13 17 -17z m-1680 -100 c224 -143 476
-228 723 -244 85 -5 101 -9 132 -33 53 -42 204 -126 289 -161 165 -69 391
-118 552 -120 l74 -1 -80 -38 c-112 -52 -245 -97 -383 -126 -95 -21 -154 -27
-312 -31 -273 -7 -325 1 -430 67 -259 160 -472 382 -625 650 -36 63 -65 118
-65 124 0 5 12 -2 28 -16 15 -14 59 -46 97 -71z m-660 63 c3 5 13 10 21 10 8
0 13 -4 10 -9 -6 -10 29 -88 52 -113 8 -10 11 -18 7 -18 -4 0 0 -10 10 -22 10
-13 -3 -1 -29 25 -25 27 -43 54 -39 60 3 5 2 7 -4 4 -5 -3 -17 3 -26 14 -9 10
-14 19 -10 19 3 0 -2 10 -13 22 -13 16 -14 19 -2 10 11 -9 18 -10 23 -2z
m-226 -64 c11 -14 6 -15 -27 -7 -4 1 8 21 12 21 2 0 9 -6 15 -14z m25 -57 c25
-42 16 -44 -11 -3 -12 19 -19 34 -15 34 4 0 16 -14 26 -31z m3844 14 c-8 -10
-27 -41 -43 -69 -25 -48 -28 -51 -44 -35 -15 15 -13 20 38 69 54 51 79 69 49
35z m-3810 -88 c-3 -3 -9 2 -12 12 -6 14 -5 15 5 6 7 -7 10 -15 7 -18z m3716
-27 c-49 -82 -171 -235 -263 -330 -176 -183 -347 -310 -559 -417 -80 -40 -117
-52 -188 -63 -114 -16 -411 -16 -534 1 -123 17 -330 70 -448 115 -75 29 -97
34 -114 25 -16 -9 -19 -8 -13 2 6 9 3 11 -9 6 -10 -4 -15 -3 -11 3 3 6 -2 10
-12 10 -10 1 -29 7 -43 15 l-25 14 26 1 c45 0 90 -12 86 -24 -6 -16 181 -20
323 -6 240 23 443 80 655 185 118 58 140 66 240 80 271 39 521 136 757 294 57
38 110 77 118 85 15 19 24 21 14 4z m-3366 -24 c-3 -3 14 -24 38 -46 41 -38
44 -43 29 -57 -14 -15 -18 -13 -45 18 -17 18 -31 38 -31 42 -1 5 -2 15 -3 22
-3 14 3 27 11 27 4 0 4 -3 1 -6z m1271 -23 c10 -18 6 -19 -43 -12 -10 1 13 31
25 31 5 0 13 -8 18 -19z m111 -21 c0 -5 -5 -10 -11 -10 -6 0 -8 -7 -5 -16 5
-13 4 -14 -7 -6 -8 7 -17 9 -20 5 -4 -3 -7 1 -7 10 0 13 13 21 43 26 4 0 7 -3
7 -9z m-1631 -44 c-3 -3 -11 5 -18 17 -13 21 -12 21 5 5 10 -10 16 -20 13 -22z
m416 -101 c239 -193 577 -350 875 -406 36 -6 103 -31 150 -54 186 -93 415
-160 643 -190 153 -20 344 -20 394 0 42 16 168 30 143 15 -41 -23 -118 -48
-129 -41 -7 4 -65 -5 -129 -21 -202 -49 -318 -62 -542 -63 -319 0 -493 32
-680 125 -279 140 -553 364 -745 610 -81 104 -84 108 -60 89 11 -9 47 -38 80
-64z m-364 22 c-10 -9 -11 -8 -5 6 3 10 9 15 12 12 3 -3 0 -11 -7 -18z m3856
-5 c-10 -10 -14 -22 -10 -25 3 -4 1 -7 -5 -7 -6 0 -14 -9 -17 -21 -4 -11 -12
-18 -19 -16 -7 3 -13 -1 -13 -9 0 -7 5 -10 11 -7 6 4 -6 -10 -26 -30 -21 -19
-38 -41 -38 -47 0 -6 -6 -10 -12 -7 -7 2 -12 10 -10 16 1 6 -2 11 -8 11 -12 0
-13 -13 -3 -24 4 -3 8 -13 9 -21 3 -19 -18 -14 -34 8 -12 16 -10 21 15 40 15
12 60 52 98 89 67 65 96 88 62 50z m-3807 -34 c45 -57 122 -133 132 -130 5 1
7 -2 3 -8 -3 -5 -2 -10 4 -10 5 0 30 -20 55 -44 24 -24 47 -42 49 -39 3 2 15
-9 28 -26 13 -17 27 -31 32 -31 4 0 14 -6 21 -12 8 -7 23 -19 34 -27 21 -14
21 -15 -4 -27 -22 -12 -28 -11 -51 9 -53 45 -88 82 -85 90 1 5 -1 6 -6 3 -5
-3 -35 22 -67 56 -33 34 -53 58 -46 53 9 -5 12 -3 9 6 -3 8 -12 13 -21 13 -9
-1 -14 2 -11 7 3 5 1 9 -5 9 -5 0 -13 9 -16 20 -4 11 -11 17 -17 14 -6 -4 -8
-2 -5 3 4 6 0 13 -8 17 -8 3 -15 12 -15 21 0 8 -3 14 -7 13 -5 -2 -8 0 -8 3 0
4 -9 16 -19 28 -11 12 -15 21 -10 21 5 0 20 -14 34 -32z m2607 -76 c-22 -24
-22 -42 0 -42 29 0 5 -12 -31 -16 -36 -3 -51 16 -24 32 7 5 8 3 3 -7 -5 -8 7
1 25 19 36 34 54 44 27 14z m-148 -84 c-5 -10 -16 -18 -24 -18 -7 0 -21 -7
-29 -16 -9 -8 -16 -11 -16 -5 0 5 5 13 10 16 6 4 7 13 1 23 -8 15 -4 17 29 17
34 0 37 -2 29 -17z m1081 -88 c-245 -230 -508 -400 -783 -507 -225 -86 -560
-128 -850 -104 -110 9 -404 55 -413 64 -1 1 104 2 234 2 184 0 260 4 342 18
139 24 309 69 425 113 52 19 163 52 247 73 187 47 314 93 480 176 130 65 292
167 363 229 22 19 42 32 45 29 2 -2 -38 -44 -90 -93z m-3154 -121 c12 -19 178
-124 280 -176 117 -61 275 -125 388 -158 44 -13 131 -42 191 -65 140 -53 338
-104 483 -124 116 -16 266 -21 245 -8 -6 4 50 7 125 7 128 1 233 7 327 20 21
3 36 3 33 0 -3 -3 -19 -7 -37 -10 -17 -2 -46 -8 -64 -13 -33 -11 -104 -22
-167 -28 -133 -11 -179 -16 -204 -21 -22 -4 -28 -2 -24 8 4 11 -17 15 -106 17
-518 14 -1031 195 -1437 508 -54 41 -88 59 -61 32 7 -7 12 -16 12 -21 0 -5 -7
-1 -16 7 -8 9 -12 20 -9 26 8 13 32 13 41 -1z m1009 -385 c17 -3 50 -7 74 -10
31 -4 40 -8 30 -15 -8 -4 -14 -14 -14 -21 0 -14 -38 -12 -66 3 -9 4 -31 11
-50 14 -18 3 -38 10 -44 15 -10 8 -16 10 -34 10 -5 0 -11 6 -14 13 -4 11 4 12
41 5 26 -5 61 -11 77 -14z m1135 -104 c-8 -5 -19 -10 -25 -10 -5 0 -3 5 5 10
8 5 20 10 25 10 6 0 3 -5 -5 -10z"/>
<path d="M1376 4617 c3 -10 9 -15 12 -12 3 3 0 11 -7 18 -10 9 -11 8 -5 -6z"/>
<path d="M4767 4389 c7 -7 15 -10 18 -7 3 3 -2 9 -12 12 -14 6 -15 5 -6 -5z"/>
<path d="M1967 4573 c3 -7 6 -13 8 -13 2 0 5 6 8 13 3 8 -1 14 -8 14 -7 0 -11
-6 -8 -14z"/>
<path d="M1846 4688 c3 -5 10 -6 15 -3 13 9 11 12 -6 12 -8 0 -12 -4 -9 -9z"/>
<path d="M1469 4137 c6 -8 7 -18 3 -22 -4 -5 -1 -5 6 -1 10 6 10 11 1 22 -6 8
-14 14 -16 14 -3 0 0 -6 6 -13z"/>
<path d="M1208 3852 c-3 -11 0 -19 7 -19 7 0 10 8 7 19 -2 10 -6 18 -7 18 -1
0 -5 -8 -7 -18z"/>
<path d="M1046 3587 c3 -10 9 -15 12 -12 3 3 0 11 -7 18 -10 9 -11 8 -5 -6z"/>
<path d="M3926 4422 c-3 -5 1 -9 9 -9 8 0 12 4 9 9 -3 4 -7 8 -9 8 -2 0 -6 -4
-9 -8z"/>
<path d="M4047 4509 c7 -7 15 -10 18 -7 3 3 -2 9 -12 12 -14 6 -15 5 -6 -5z"/>
<path d="M3024 2199 c-3 -6 -2 -15 3 -20 5 -5 9 -1 9 11 0 23 -2 24 -12 9z"/>
<path d="M1345 2389 c-4 -6 -5 -12 -2 -15 2 -3 7 2 10 11 7 17 1 20 -8 4z"/>
<path d="M4410 3706 c0 -2 8 -10 18 -17 15 -13 16 -12 3 4 -13 16 -21 21 -21
13z"/>
<path d="M1706 2572 c-3 -5 1 -9 9 -9 8 0 12 4 9 9 -3 4 -7 8 -9 8 -2 0 -6 -4
-9 -8z"/>
<path d="M1846 2408 c3 -5 10 -6 15 -3 13 9 11 12 -6 12 -8 0 -12 -4 -9 -9z"/>
<path d="M966 1848 c3 -5 10 -6 15 -3 13 9 11 12 -6 12 -8 0 -12 -4 -9 -9z"/>
<path d="M1209 1523 c-13 -16 -12 -17 4 -4 9 7 17 15 17 17 0 8 -8 3 -21 -13z"/>
<path d="M1180 1471 c0 -6 4 -13 10 -16 6 -3 7 1 4 9 -7 18 -14 21 -14 7z"/>
<path d="M1496 1168 c3 -5 10 -6 15 -3 13 9 11 12 -6 12 -8 0 -12 -4 -9 -9z"/>
<path d="M1527 1843 c3 -7 6 -13 8 -13 2 0 5 6 8 13 3 8 -1 14 -8 14 -7 0 -11
-6 -8 -14z"/>
<path d="M4359 2118 c-5 -18 -6 -38 -1 -34 7 8 12 36 6 36 -2 0 -4 -1 -5 -2z"/>
<path d="M4300 1580 c-9 -6 -10 -10 -3 -10 6 0 15 5 18 10 8 12 4 12 -15 0z"/>
<path d="M3899 1443 c-13 -16 -12 -17 4 -4 16 13 21 21 13 21 -2 0 -10 -8 -17
-17z"/>
<path d="M4893 1583 c4 -3 1 -13 -6 -22 -11 -14 -10 -14 5 -2 16 12 16 31 1
31 -4 0 -3 -3 0 -7z"/>
<path d="M2645 1471 c-3 -5 -2 -12 3 -15 5 -3 9 1 9 9 0 17 -3 19 -12 6z"/>
<path d="M4106 1172 c-3 -5 1 -9 9 -9 8 0 12 4 9 9 -3 4 -7 8 -9 8 -2 0 -6 -4
-9 -8z"/>
<path d="M1809 1103 c-12 -16 -12 -17 2 -6 9 7 20 9 24 5 5 -4 5 -1 1 6 -9 16
-11 15 -27 -5z"/>
<path d="M4665 5101 c-3 -5 -2 -12 3 -15 5 -3 9 1 9 9 0 17 -3 19 -12 6z"/>
<path d="M4924 4868 c-4 -7 -4 -10 1 -6 4 4 15 2 24 -5 14 -11 14 -10 2 6 -16
20 -18 21 -27 5z"/>
</g>
</svg>
