<?xml version="1.0" standalone="no"?>
<!DOCTYPE svg PUBLIC "-//W3C//DTD SVG 20010904//EN"
 "http://www.w3.org/TR/2001/REC-SVG-20010904/DTD/svg10.dtd">
<svg version="1.0" xmlns="http://www.w3.org/2000/svg"
 width="600.000000pt" height="600.000000pt" viewBox="0 0 600.000000 600.000000"
 preserveAspectRatio="xMidYMid meet">
<g transform="translate(0.000000,600.000000) scale(0.100000,-0.100000)"
fill="#000000" stroke="none">
<path d="M2795 5740 c-49 -4 -116 -11 -148 -14 -67 -7 -308 -55 -322 -64 -5
-4 -14 -7 -20 -9 -5 -1 -20 -4 -32 -7 -12 -2 -30 -9 -41 -15 -11 -6 -22 -8
-25 -5 -3 3 -13 1 -24 -4 -27 -14 -177 -72 -186 -72 -13 0 -102 -43 -121 -59
-10 -9 -21 -15 -25 -14 -11 3 -135 -61 -149 -77 -9 -10 -11 -10 -6 -1 7 14
-39 -16 -85 -54 -16 -13 -22 -15 -17 -5 4 8 -1 5 -12 -7 -11 -13 -25 -23 -31
-23 -14 0 -196 -137 -242 -182 -10 -9 -27 -21 -38 -28 -12 -6 -21 -18 -21 -26
0 -8 -4 -12 -10 -9 -5 3 -10 2 -10 -3 0 -6 -15 -19 -32 -31 -18 -11 -30 -21
-26 -21 4 0 -23 -31 -60 -68 -91 -92 -122 -128 -122 -140 0 -6 -4 -12 -8 -14
-5 -1 -34 -37 -65 -78 -31 -41 -64 -82 -72 -91 -8 -9 -15 -21 -15 -28 0 -7 -5
-9 -10 -6 -6 4 -10 3 -9 -2 4 -16 -13 -43 -24 -36 -5 3 -7 2 -4 -4 3 -5 -5
-21 -19 -36 -14 -16 -22 -33 -18 -40 4 -6 4 -9 -1 -5 -9 8 -50 -47 -80 -107
-11 -22 -23 -42 -27 -45 -4 -3 -14 -21 -23 -40 -9 -19 -26 -54 -39 -77 -13
-23 -21 -44 -18 -47 3 -4 1 -6 -5 -6 -9 0 -93 -194 -93 -214 0 -3 -9 -25 -19
-49 -11 -23 -22 -55 -27 -72 -4 -16 -9 -34 -10 -40 -14 -43 -50 -185 -47 -185
2 0 -1 -8 -6 -18 -5 -10 -12 -36 -15 -58 -3 -21 -13 -86 -22 -144 -22 -132
-25 -534 -5 -655 7 -44 15 -96 17 -115 3 -19 9 -46 14 -60 5 -14 11 -41 14
-60 2 -19 7 -44 10 -55 3 -11 14 -56 25 -100 21 -86 78 -240 118 -318 13 -27
22 -51 20 -54 -3 -2 10 -32 29 -65 19 -33 34 -63 34 -67 0 -3 15 -30 34 -59
19 -28 33 -52 30 -52 -3 0 2 -7 11 -16 9 -9 19 -29 22 -45 3 -16 9 -26 14 -23
4 2 17 -12 28 -33 10 -21 32 -55 48 -75 42 -55 88 -122 88 -129 0 -7 56 -78
92 -116 12 -12 20 -23 18 -23 -2 0 6 -11 18 -23 12 -13 37 -41 56 -63 51 -59
111 -124 111 -121 0 2 34 -30 76 -70 42 -41 101 -92 132 -115 32 -23 62 -47
69 -52 40 -35 103 -79 103 -72 0 3 12 -6 26 -19 15 -14 30 -22 35 -19 5 3 9 0
9 -6 0 -6 14 -16 30 -21 17 -6 30 -15 30 -19 0 -5 10 -12 23 -15 12 -4 31 -16
42 -26 11 -10 22 -18 25 -18 12 0 47 -16 73 -34 15 -10 35 -16 43 -13 8 3 12
2 9 -4 -3 -6 -3 -10 2 -11 32 -3 59 -11 61 -19 2 -6 8 -8 13 -4 5 3 9 0 9 -6
0 -7 6 -10 14 -7 8 3 16 2 18 -3 3 -11 198 -82 198 -73 0 3 6 1 13 -5 16 -13
168 -52 179 -46 4 3 8 2 8 -3 0 -4 17 -9 38 -11 20 -1 60 -9 87 -16 66 -19
249 -40 279 -32 14 3 27 3 30 -2 2 -4 78 -6 168 -5 90 2 173 3 186 3 53 0 236
31 250 42 13 11 14 11 8 0 -7 -11 -4 -12 10 -4 11 5 25 7 33 4 8 -2 11 0 8 5
-3 5 4 9 16 9 44 0 117 16 111 25 -3 5 2 6 10 3 8 -3 21 -2 28 2 7 4 19 9 28
9 13 1 53 13 140 41 8 3 15 4 15 3 0 -1 16 5 35 13 19 8 38 15 43 16 45 7 76
15 73 21 -2 3 7 7 21 8 14 0 29 6 33 13 4 6 11 10 16 9 9 -2 29 4 81 27 17 8
36 14 42 14 6 0 11 5 11 11 0 5 4 8 9 5 5 -4 28 6 51 21 23 16 45 28 49 28 15
0 90 38 87 44 -2 3 20 17 50 30 30 14 54 29 54 33 0 9 50 32 63 29 5 -1 5 4 1
10 -5 8 -2 10 8 7 9 -4 22 4 33 18 9 13 22 21 28 17 5 -3 7 -2 4 3 -3 6 3 16
15 23 16 10 19 10 12 -1 -7 -11 82 56 96 73 3 3 24 19 47 36 23 17 40 33 37
36 -3 3 4 8 15 12 12 3 19 11 16 16 -4 5 -1 9 6 9 12 0 101 80 143 129 12 13
35 38 51 54 17 16 30 32 30 36 0 3 9 17 20 30 75 90 94 109 100 103 4 -4 5 -2
3 4 -4 14 51 104 64 104 5 0 7 4 4 9 -3 4 3 16 14 26 11 10 20 22 20 27 0 5
12 25 26 44 15 19 23 34 18 34 -4 0 2 10 14 23 12 13 20 26 17 29 -3 2 4 13
15 23 11 10 20 21 20 26 0 4 21 50 46 103 25 53 47 103 48 110 1 8 6 20 12 27
5 8 18 41 29 74 10 33 27 79 37 103 11 28 13 40 5 36 -6 -4 -4 2 6 14 11 12
16 26 11 33 -4 7 -3 10 3 6 7 -4 11 2 11 16 0 25 4 47 25 132 48 192 61 346
62 700 0 246 -8 348 -42 515 -8 41 -16 84 -18 95 -11 54 -25 106 -45 165 -12
36 -24 72 -26 80 -9 38 -47 140 -69 188 -14 28 -24 53 -24 55 4 11 -150 289
-165 299 -6 4 -7 8 -3 8 5 0 1 7 -7 16 -9 8 -28 36 -43 62 -65 111 -350 442
-382 442 -7 0 -9 5 -6 10 3 6 2 10 -2 10 -5 0 -23 14 -41 30 -18 17 -38 30
-43 30 -6 0 -7 5 -4 10 3 6 1 10 -5 10 -6 0 -30 18 -54 40 -24 22 -47 40 -52
40 -14 0 -69 51 -66 62 1 5 -2 7 -8 3 -6 -4 -19 4 -30 17 -11 13 -19 19 -20
15 0 -5 -13 1 -29 12 -16 12 -33 21 -38 21 -6 0 -35 18 -67 40 -32 22 -54 35
-50 28 4 -7 -4 -3 -18 10 -13 12 -32 22 -42 22 -9 0 -14 5 -11 10 3 6 -4 10
-17 10 -13 0 -32 7 -42 15 -10 8 -23 12 -27 9 -5 -3 -9 -1 -9 5 0 6 -19 16
-42 23 -24 6 -45 15 -48 19 -3 4 -61 26 -130 49 -69 24 -154 54 -190 67 -36
14 -67 25 -70 24 -3 0 -27 6 -55 14 -27 8 -59 16 -70 18 -11 1 -24 5 -30 9
-18 11 -264 55 -310 56 -11 0 -38 3 -60 6 -75 10 -340 14 -430 6z m545 -50
c184 -27 341 -67 560 -143 220 -77 279 -101 430 -178 515 -262 940 -716 1168
-1249 92 -214 153 -427 189 -660 23 -146 26 -665 5 -830 -97 -761 -498 -1415
-1127 -1835 -222 -148 -438 -246 -749 -340 -351 -105 -470 -126 -781 -132
-310 -6 -481 14 -750 89 -433 120 -833 360 -1145 684 -120 125 -182 203 -307
384 -135 196 -175 261 -254 423 -300 615 -340 1338 -107 1982 51 142 170 384
249 505 88 137 276 384 378 498 298 331 725 596 1173 727 174 51 333 79 568
99 92 8 370 -5 500 -24z"/>
<path d="M2609 5600 c-229 -41 -422 -98 -642 -192 -134 -58 -154 -75 -26 -24
47 19 136 49 199 66 63 18 176 52 250 76 74 23 176 51 227 61 51 11 95 22 99
26 4 4 5 7 3 6 -2 0 -52 -9 -110 -19z"/>
<path d="M2920 5551 c-37 -5 -27 -8 60 -14 255 -17 523 -83 760 -187 47 -20
119 -45 160 -55 212 -51 502 -177 680 -296 126 -85 134 -88 75 -34 -89 82
-238 199 -330 260 -114 75 -331 188 -432 224 -106 39 -283 78 -439 96 -128 15
-442 18 -534 6z m440 -25 c0 -2 -11 -6 -25 -8 -14 -3 -25 -1 -25 3 0 5 11 9
25 9 14 0 25 -2 25 -4z m190 -25 c25 -5 48 -7 52 -5 4 3 15 0 25 -5 17 -9 152
-43 183 -46 9 0 20 -4 25 -7 18 -10 90 -32 98 -30 5 1 6 -2 2 -8 -6 -9 -1 -11
38 -14 6 -1 18 -7 25 -14 8 -7 18 -10 23 -7 5 4 9 2 9 -3 0 -5 24 -19 53 -32
28 -13 61 -31 71 -40 17 -13 18 -13 11 0 -5 8 6 3 24 -12 18 -16 37 -28 42
-28 5 0 15 -5 22 -11 7 -5 27 -19 45 -29 17 -11 32 -24 32 -30 0 -10 -4 -9
-66 23 -17 9 -34 14 -38 10 -3 -3 -6 -1 -6 6 0 7 -5 9 -11 5 -6 -3 -15 -1 -19
6 -5 7 -17 14 -28 15 -11 1 -27 7 -35 13 -8 7 -19 12 -23 11 -5 -1 -22 3 -39
10 -28 12 -160 47 -215 58 -14 2 -43 14 -65 26 -22 11 -42 21 -45 20 -3 0 -23
8 -45 18 -57 27 -287 99 -296 93 -4 -2 -10 0 -14 5 -3 6 -13 8 -23 5 -14 -5
-15 -4 -2 5 16 11 113 7 190 -8z m836 -350 c1 -6 0 -7 -3 -1 -2 5 -11 10 -18
10 -8 0 -17 4 -20 10 -4 6 2 7 16 1 13 -4 24 -13 25 -20z"/>
<path d="M2565 5444 c-240 -34 -269 -42 -449 -131 -221 -110 -395 -235 -588
-422 -70 -68 -128 -128 -128 -133 0 -5 13 2 30 15 47 40 189 123 302 177 183
87 380 150 579 184 53 9 134 35 219 70 242 100 454 145 730 154 l185 7 -99 23
c-191 46 -254 53 -506 57 -135 2 -258 1 -275 -1z m525 -36 c13 0 32 -5 41 -12
15 -10 9 -12 -33 -14 -27 -1 -93 -12 -147 -23 -53 -12 -109 -22 -126 -24 -16
-2 -34 -4 -38 -4 -5 -1 -6 -5 -3 -10 3 -5 -4 -9 -17 -9 -40 0 -154 -36 -247
-79 -19 -9 -35 -15 -35 -12 0 2 -16 -6 -35 -18 -33 -20 -108 -39 -192 -48 -21
-2 -64 -12 -95 -20 -32 -9 -64 -17 -70 -17 -7 -1 -13 -5 -13 -10 0 -5 -4 -7
-9 -4 -5 4 -22 1 -38 -5 -15 -6 -39 -13 -53 -16 -14 -2 -29 -8 -34 -14 -6 -5
-16 -9 -24 -9 -7 0 -46 -14 -85 -32 -40 -17 -80 -31 -89 -30 -10 0 -18 -3 -18
-8 0 -7 -81 -50 -95 -50 -12 0 26 45 38 45 6 1 11 6 10 13 -2 7 0 11 5 9 12
-4 62 40 54 48 -4 3 -2 5 3 4 6 -2 20 2 33 9 17 10 22 10 22 1 0 -7 3 -9 6 -6
4 4 2 13 -5 21 -9 11 -6 16 16 25 50 20 103 57 96 66 -5 4 -3 5 4 2 6 -4 41
13 77 37 36 24 63 40 60 34 -3 -5 12 2 35 17 23 14 47 23 54 19 7 -4 9 -4 5 1
-11 11 22 34 50 35 12 0 22 5 22 12 0 6 3 9 6 5 4 -3 18 0 33 7 47 25 125 49
166 52 22 2 78 6 125 10 47 3 87 8 90 11 3 3 100 2 215 -1 116 -4 221 -8 235
-8z m-1473 -473 c0 -8 -4 -12 -9 -9 -5 3 -6 10 -3 15 9 13 12 11 12 -6z"/>
<path d="M1825 5401 c-6 -11 13 -26 22 -17 4 3 1 6 -6 6 -7 0 -9 5 -6 10 3 6
4 10 1 10 -3 0 -7 -4 -11 -9z"/>
<path d="M3054 5255 c-87 -13 -371 -79 -381 -89 -2 -2 40 -6 94 -10 314 -22
616 -115 864 -265 48 -29 86 -43 133 -51 181 -29 348 -81 521 -164 135 -65
274 -149 338 -205 20 -18 37 -30 37 -27 0 13 -137 197 -209 280 -147 172 -348
332 -568 455 -76 41 -110 54 -185 67 -131 23 -509 28 -644 9z m566 -28 c19 -3
53 -8 75 -11 62 -9 68 -11 102 -29 18 -9 37 -17 42 -17 6 0 30 -13 53 -29 24
-16 46 -27 50 -25 5 3 8 0 8 -6 0 -6 12 -16 28 -23 15 -6 34 -18 42 -25 8 -7
19 -13 25 -15 5 -1 19 -12 32 -24 12 -13 29 -23 38 -23 9 0 13 -4 10 -10 -3
-5 -2 -10 4 -10 5 0 23 -11 39 -25 16 -13 32 -22 36 -20 3 3 4 2 2 -1 -6 -8
56 -60 67 -56 5 1 6 -1 4 -5 -2 -5 5 -17 16 -28 11 -11 16 -14 12 -6 -6 10 -4
12 4 7 7 -5 10 -14 7 -22 -3 -8 -1 -13 4 -11 8 2 130 -120 130 -130 0 -2 15
-18 33 -35 17 -17 25 -27 17 -23 -11 6 -10 3 3 -12 9 -11 17 -23 17 -27 0 -7
-47 21 -68 41 -7 7 -22 13 -33 13 -10 0 -19 4 -19 9 0 5 -11 12 -25 15 -14 4
-25 11 -25 16 0 6 -5 10 -10 10 -6 0 -44 15 -84 34 -40 19 -82 36 -92 38 -10
2 -22 7 -26 12 -3 5 -14 10 -25 11 -10 1 -31 8 -48 15 -16 7 -49 15 -72 17
-24 3 -43 10 -43 15 0 6 -7 8 -15 4 -8 -3 -30 1 -49 9 -19 8 -54 16 -78 19
-71 6 -139 28 -151 47 -7 11 -19 19 -27 19 -9 0 -20 4 -26 9 -12 11 -151 82
-167 85 -7 1 -27 10 -44 19 -18 10 -34 17 -35 17 -4 -2 -20 4 -90 29 -32 11
-58 18 -58 15 0 -4 -6 -1 -14 5 -17 14 -195 53 -208 45 -4 -3 -8 -1 -8 4 0 5
-10 9 -22 9 -84 1 -101 4 -92 13 6 6 24 13 40 16 16 2 36 7 44 10 8 4 38 8 65
10 28 2 64 8 80 13 30 9 461 7 525 -2z"/>
<path d="M1631 5140 c-198 -119 -348 -235 -506 -394 -160 -160 -227 -254 -334
-466 -78 -153 -127 -278 -175 -448 -49 -171 -51 -200 -8 -92 104 257 259 505
434 695 36 39 92 111 125 160 156 233 333 417 579 602 52 39 21 24 -115 -57z
m-217 -192 c-16 -29 -37 -47 -47 -41 -5 3 -7 2 -4 -3 3 -5 -23 -41 -59 -79
-35 -39 -64 -75 -64 -82 0 -6 -3 -13 -8 -15 -4 -1 -23 -23 -42 -48 -19 -25
-39 -48 -45 -52 -5 -4 -6 -8 -2 -8 5 0 -2 -15 -15 -32 -13 -18 -23 -36 -23
-40 0 -5 -4 -7 -8 -5 -5 1 -14 -8 -21 -21 -6 -12 -35 -48 -63 -80 -86 -95
-182 -219 -176 -226 4 -3 2 -6 -4 -6 -11 0 -61 -77 -61 -94 0 -5 -4 -12 -9
-15 -5 -3 -17 -17 -26 -31 -9 -13 -17 -20 -17 -14 0 6 3 14 7 18 4 3 8 12 9
19 1 7 8 26 15 42 7 17 13 33 14 38 2 4 4 10 5 15 1 4 2 11 1 15 -1 5 3 6 9 2
5 -3 10 0 10 8 0 8 11 31 25 51 14 20 25 43 25 51 0 8 10 30 23 49 12 19 48
75 80 125 32 49 71 102 87 117 16 16 26 32 23 37 -3 6 -1 7 4 4 6 -4 18 2 28
13 10 11 15 20 11 20 -10 0 114 114 132 122 10 4 13 7 8 7 -11 1 65 71 77 71
4 0 5 5 2 10 -4 6 -3 10 2 9 18 -3 36 1 30 8 -4 3 10 17 31 29 43 27 45 28 36
12z"/>
<path d="M3965 5191 c-3 -5 -2 -12 3 -15 5 -3 9 1 9 9 0 17 -3 19 -12 6z"/>
<path d="M4564 5146 c1 -8 5 -18 8 -22 4 -3 5 1 4 10 -1 8 -5 18 -8 22 -4 3
-5 -1 -4 -10z"/>
<path d="M4156 5112 c5 -4 43 -33 84 -64 210 -157 433 -426 569 -685 33 -64
82 -133 137 -198 48 -55 118 -147 156 -205 109 -163 229 -423 268 -579 6 -23
13 -41 15 -39 10 10 -19 254 -45 388 -40 203 -97 367 -195 566 l-85 172 -117
119 c-137 138 -230 216 -386 320 -123 82 -461 255 -401 205z m319 -188 c19 -3
65 -35 65 -45 0 -5 4 -8 9 -6 10 2 90 -55 91 -65 0 -5 6 -8 14 -8 7 0 19 -7
26 -15 6 -8 16 -13 20 -12 4 1 9 -2 10 -8 4 -14 43 -40 55 -37 6 2 7 0 3 -4
-8 -8 32 -41 44 -37 4 2 5 -3 2 -11 -3 -8 0 -17 7 -22 8 -5 10 -3 5 7 -4 8 6
-1 23 -18 17 -18 36 -33 43 -33 6 0 9 -3 6 -6 -4 -3 10 -21 30 -40 21 -19 37
-43 37 -52 0 -9 7 -16 15 -15 8 2 29 -17 45 -42 17 -24 34 -45 38 -45 5 0 6
-4 2 -9 -3 -5 -1 -12 5 -16 10 -6 95 -181 105 -215 0 -3 12 -27 25 -55 12 -27
23 -57 23 -65 0 -8 4 -20 9 -27 9 -11 42 -118 58 -188 26 -114 36 -174 28
-169 -4 3 -8 1 -8 -5 0 -5 5 -13 10 -16 6 -3 10 -11 10 -17 0 -21 -37 38 -59
95 -13 31 -28 57 -33 57 -5 0 -7 4 -4 9 3 5 -1 14 -9 21 -8 7 -15 18 -15 25 0
8 -10 26 -23 42 -13 15 -29 43 -36 61 -8 17 -17 32 -22 32 -5 0 -9 7 -9 15 0
8 -4 15 -10 15 -5 0 -10 6 -10 13 0 7 -9 18 -21 25 -12 7 -18 16 -15 19 5 6
-27 49 -129 169 -51 61 -83 112 -175 285 -8 15 -25 39 -37 52 -12 14 -19 28
-16 31 3 3 -2 8 -11 12 -9 3 -16 11 -16 18 0 6 -25 39 -56 74 -31 34 -53 62
-49 62 3 0 -7 13 -22 29 -127 132 -163 172 -163 181 0 6 16 -1 36 -17 20 -15
42 -28 49 -29z"/>
<path d="M4440 4921 c0 -5 7 -12 16 -15 14 -5 15 -4 4 9 -14 17 -20 19 -20 6z"/>
<path d="M5070 4361 c0 -6 4 -13 10 -16 6 -3 7 1 4 9 -7 18 -14 21 -14 7z"/>
<path d="M4616 5087 c3 -10 9 -15 12 -12 3 3 0 11 -7 18 -10 9 -11 8 -5 -6z"/>
<path d="M2465 5061 c-131 -18 -431 -234 -618 -445 -72 -82 -230 -306 -222
-314 2 -2 19 7 37 21 56 43 247 133 362 171 130 44 293 73 436 79 102 4 107 5
164 42 210 134 495 224 770 243 l108 7 -108 47 c-189 80 -367 127 -565 148
-103 11 -285 11 -364 1z m310 -32 c158 -13 200 -18 200 -20 0 -1 11 -3 25 -4
56 -7 90 -15 110 -25 11 -6 20 -9 20 -6 0 3 37 -9 83 -25 83 -31 102 -37 125
-38 6 -1 12 -7 12 -15 0 -9 -22 -15 -74 -19 -76 -7 -120 -16 -241 -49 -105
-29 -235 -81 -228 -92 3 -5 1 -6 -6 -2 -6 4 -28 -2 -47 -13 -19 -12 -44 -21
-55 -21 -11 0 -18 -3 -16 -7 6 -10 -19 -34 -27 -26 -3 4 -6 1 -6 -6 0 -7 -4
-10 -9 -7 -5 3 -21 -7 -37 -22 -15 -15 -24 -20 -19 -12 7 12 6 13 -6 3 -8 -7
-57 -15 -109 -18 -52 -3 -102 -8 -110 -10 -8 -2 -42 -7 -75 -10 -76 -7 -126
-15 -146 -26 -9 -4 -31 -11 -50 -14 -18 -3 -47 -12 -64 -19 -16 -7 -55 -21
-85 -31 -30 -10 -66 -25 -80 -34 -13 -9 -25 -15 -27 -13 -10 8 -23 0 -17 -10
4 -7 4 -10 -1 -6 -4 4 -20 1 -35 -7 -15 -8 -30 -11 -34 -8 -3 4 -6 1 -6 -5 0
-6 -10 -17 -22 -23 l-23 -12 23 25 c12 13 19 28 15 33 -5 4 -3 6 2 3 6 -3 20
10 32 29 13 19 18 31 12 27 -6 -3 17 22 50 57 34 35 61 67 61 71 0 13 43 47
52 42 5 -3 8 -2 7 3 -3 20 2 27 12 13 8 -12 9 -10 4 8 -5 16 -2 22 10 22 9 0
14 4 11 9 -3 5 8 14 24 21 16 7 28 15 27 19 -3 9 41 50 47 44 3 -4 6 -1 6 5 0
6 10 16 21 23 17 9 24 8 31 -2 8 -11 9 -10 5 2 -5 15 33 59 51 59 4 0 23 14
42 30 19 17 45 33 57 36 13 4 20 11 16 18 -3 6 0 6 8 -2 11 -10 18 -7 37 15
13 16 20 22 16 14 -4 -8 3 -7 21 5 19 12 56 21 109 25 127 9 143 9 271 -2z"/>
<path d="M1566 4998 c3 -5 10 -6 15 -3 13 9 11 12 -6 12 -8 0 -12 -4 -9 -9z"/>
<path d="M1997 4961 c-298 -105 -599 -290 -780 -480 -105 -110 -237 -424 -291
-693 -27 -133 -46 -304 -46 -408 l1 -65 30 80 c96 260 254 501 460 700 74 72
100 105 130 166 132 272 351 530 593 700 38 27 63 49 55 48 -8 0 -76 -22 -152
-48z m-102 -126 c-43 -41 -83 -72 -88 -68 -6 3 -7 1 -3 -5 4 -6 -14 -33 -39
-59 -24 -26 -69 -82 -100 -123 -30 -41 -66 -90 -80 -109 -14 -19 -25 -40 -25
-48 0 -7 -5 -13 -11 -13 -5 0 -7 -4 -4 -10 3 -5 1 -10 -6 -10 -7 0 -9 -3 -6
-6 4 -4 -7 -24 -24 -45 -17 -21 -28 -43 -24 -49 3 -5 1 -10 -4 -10 -6 0 -10
-3 -9 -7 1 -5 -5 -22 -15 -39 -9 -17 -13 -35 -9 -39 4 -5 2 -5 -4 -2 -7 4 -30
-13 -53 -38 -22 -24 -41 -43 -41 -40 0 2 -28 -27 -62 -64 -97 -106 -118 -131
-111 -131 4 0 -3 -7 -15 -16 -12 -8 -20 -19 -17 -24 3 -4 2 -10 -2 -12 -12 -5
-73 -86 -73 -97 0 -5 -4 -11 -8 -13 -11 -4 -79 -126 -113 -200 -14 -32 -28
-60 -31 -63 -9 -9 10 172 27 255 32 156 76 307 116 397 94 213 117 251 196
330 129 129 142 140 154 123 9 -12 10 -12 5 3 -3 9 -2 17 2 17 5 0 17 8 28 18
10 9 40 31 66 47 26 16 44 33 41 39 -3 5 -1 6 6 2 6 -4 22 3 36 16 13 13 28
23 32 24 21 2 70 28 92 47 13 12 20 15 16 7 -7 -12 -6 -13 7 -3 8 7 19 9 23 5
5 -4 5 -2 2 4 -7 12 19 29 36 25 5 -1 37 11 70 27 120 56 121 52 22 -43z"/>
<path d="M1530 4979 c0 -5 5 -7 10 -4 6 3 10 8 10 11 0 2 -4 4 -10 4 -5 0 -10
-5 -10 -11z"/>
<path d="M4810 4981 c0 -6 4 -13 10 -16 6 -3 7 1 4 9 -7 18 -14 21 -14 7z"/>
<path d="M1485 4931 c-3 -5 -2 -12 3 -15 5 -3 9 1 9 9 0 17 -3 19 -12 6z"/>
<path d="M4666 4888 c3 -5 10 -6 15 -3 13 9 11 12 -6 12 -8 0 -12 -4 -9 -9z"/>
<path d="M4903 4828 c39 -41 154 -193 191 -253 11 -16 57 -80 103 -142 46 -61
108 -153 138 -204 58 -99 72 -111 29 -28 -56 111 -160 276 -244 387 -86 115
-234 282 -249 282 -4 0 10 -19 32 -42z"/>
<path d="M5016 4768 c3 -5 10 -6 15 -3 13 9 11 12 -6 12 -8 0 -12 -4 -9 -9z"/>
<path d="M3272 4755 c-176 -27 -343 -80 -497 -157 l-67 -34 83 -17 c120 -23
198 -51 324 -112 107 -51 215 -124 283 -189 l33 -31 152 -1 c167 -1 260 -16
398 -63 106 -36 160 -60 227 -99 28 -18 52 -30 52 -27 0 2 -16 38 -35 80 -103
227 -266 431 -474 593 l-84 66 -151 3 c-92 1 -187 -4 -244 -12z m394 -23 c-2
-4 8 -16 22 -26 16 -12 23 -14 18 -5 -4 8 -1 5 8 -5 8 -10 12 -24 9 -30 -4 -6
2 -4 12 4 11 9 16 10 11 3 -4 -7 -4 -13 1 -13 4 0 28 -19 53 -41 88 -80 104
-94 95 -80 -5 10 -4 12 3 7 7 -4 12 -12 12 -18 0 -6 19 -28 43 -50 23 -22 35
-37 27 -33 -8 3 -3 -3 13 -15 15 -12 25 -26 22 -31 -3 -4 3 -14 15 -21 11 -7
20 -17 20 -22 0 -6 12 -23 28 -39 15 -17 20 -26 12 -22 -8 5 -5 -3 7 -16 35
-39 105 -177 93 -184 -5 -3 -10 -1 -10 5 0 6 -4 9 -9 6 -5 -3 -20 4 -35 15
-14 11 -30 17 -36 14 -5 -3 -10 -2 -10 4 0 5 -26 17 -57 27 -32 9 -83 25 -113
35 -101 33 -164 42 -321 44 -126 2 -161 5 -180 19 -13 9 -19 16 -14 16 6 0 -7
10 -28 23 -21 13 -34 27 -30 32 4 4 3 5 -3 2 -6 -4 -24 5 -40 18 -16 14 -32
25 -35 25 -3 0 -16 9 -29 20 -13 11 -29 20 -37 20 -7 0 -13 5 -13 11 0 5 -4 8
-9 4 -5 -3 -12 -1 -16 5 -11 18 -141 75 -164 71 -7 -1 -10 2 -6 8 3 6 -3 12
-14 12 -25 2 -29 3 -64 17 -16 7 -34 12 -42 12 -8 0 -26 5 -42 11 l-28 11 25
13 c14 8 31 14 38 15 7 0 31 9 55 19 73 34 296 92 355 93 12 0 24 3 26 7 2 3
86 7 185 8 100 1 179 -2 177 -5z"/>
<path d="M3957 4638 c179 -174 316 -385 393 -605 31 -89 34 -93 110 -158 89
-76 190 -191 268 -303 58 -85 151 -266 181 -352 l18 -55 9 50 c13 74 10 397
-5 490 -30 192 -121 476 -170 529 -47 52 -204 179 -296 239 -102 67 -276 154
-380 191 -71 25 -207 66 -218 66 -3 0 37 -42 90 -92z m47 23 c3 -4 41 -19 85
-31 44 -13 78 -27 75 -32 -3 -4 2 -8 11 -8 22 0 215 -97 208 -104 -4 -3 -1 -7
5 -7 7 -1 15 -2 20 -3 4 0 18 -11 32 -24 13 -12 30 -20 38 -17 7 2 10 0 7 -5
-3 -6 -2 -10 4 -10 5 0 23 -12 38 -26 15 -14 52 -42 81 -61 28 -19 52 -37 52
-40 0 -2 -4 -1 -10 2 -5 3 -10 4 -10 2 0 -2 23 -18 50 -36 28 -18 48 -37 45
-42 -4 -5 -1 -9 5 -9 12 0 71 -122 74 -155 1 -10 22 -76 33 -105 7 -17 5 -11
27 -115 10 -44 22 -91 26 -105 15 -40 24 -430 10 -430 -6 0 -9 4 -6 8 3 5 -4
21 -15 38 -23 34 -43 76 -41 87 1 4 -2 7 -7 7 -5 0 -13 10 -16 23 -4 12 -17
33 -29 46 -11 13 -15 21 -8 17 14 -8 -18 40 -67 101 -18 23 -32 44 -31 48 1 4
-7 14 -17 23 -10 9 -36 38 -57 64 -21 26 -43 45 -49 41 -5 -3 -7 -2 -4 4 6 9
-65 77 -135 129 -15 11 -25 24 -21 27 3 4 1 7 -6 7 -7 0 -10 4 -6 9 5 9 -12
56 -42 114 -8 15 -11 27 -8 27 6 0 -40 89 -109 215 -6 11 -18 26 -26 33 -8 7
-9 11 -2 7 6 -3 12 -1 12 4 0 6 -4 11 -9 11 -5 0 -23 19 -40 43 -39 54 -87
112 -127 154 -18 18 -29 33 -25 33 3 0 -6 8 -22 18 -15 10 -24 22 -20 25 9 10
21 9 27 -2z"/>
<path d="M1366 4712 c-3 -5 1 -9 9 -9 8 0 12 4 9 9 -3 4 -7 8 -9 8 -2 0 -6 -4
-9 -8z"/>
<path d="M2315 4470 c-272 -42 -513 -144 -726 -306 -56 -43 -57 -45 -93 -156
-83 -261 -100 -451 -64 -730 6 -49 14 -88 17 -88 4 0 12 15 19 33 22 62 132
216 218 307 94 98 183 168 287 225 48 27 67 42 67 57 0 33 56 192 96 270 57
114 130 215 227 316 50 50 86 92 81 91 -5 0 -63 -9 -129 -19z m32 -39 c0 -11
-4 -18 -7 -17 -3 2 -13 -5 -22 -16 -10 -10 -16 -18 -13 -18 3 0 -3 -8 -12 -18
-32 -31 -113 -140 -113 -151 0 -6 -5 -11 -11 -11 -5 0 -7 -4 -4 -10 3 -5 2
-10 -2 -10 -9 0 -13 -6 -59 -101 -33 -69 -53 -121 -80 -212 -10 -33 -24 -61
-33 -64 -9 -4 -24 -13 -34 -21 -10 -9 -33 -23 -52 -31 -34 -16 -85 -57 -173
-138 -25 -24 -50 -43 -55 -43 -6 0 -8 -3 -4 -6 3 -3 -4 -16 -16 -28 -59 -57
-127 -139 -121 -147 3 -5 0 -9 -5 -9 -6 0 -11 -7 -11 -15 0 -8 -9 -23 -19 -32
-11 -9 -18 -20 -16 -24 3 -4 -2 -9 -10 -13 -8 -3 -17 -1 -20 4 -3 5 -4 109 -1
232 3 174 9 243 24 313 31 139 75 253 108 281 16 13 34 28 40 33 6 5 30 19 52
30 23 11 46 29 51 38 6 10 11 14 11 9 0 -4 12 -1 26 9 81 53 301 144 389 161
61 12 81 17 92 26 7 5 16 7 21 4 5 -3 22 -1 38 4 42 12 43 12 41 -9z"/>
<path d="M4690 4481 c0 -6 4 -13 10 -16 6 -3 7 1 4 9 -7 18 -14 21 -14 7z"/>
<path d="M2525 4430 c-111 -94 -224 -231 -289 -351 -33 -59 -96 -217 -96 -238
0 -4 33 1 73 12 43 12 120 21 194 24 140 6 231 -9 329 -56 l61 -29 17 33 c74
137 265 282 450 341 l69 22 -83 62 c-163 120 -395 209 -592 225 l-73 6 -60
-51z m207 6 c5 3 55 -9 111 -27 56 -17 112 -33 125 -35 13 -1 29 -8 37 -14 8
-7 15 -9 15 -4 0 5 4 4 8 -2 4 -6 32 -24 62 -39 73 -36 89 -45 132 -78 32 -25
35 -31 23 -43 -7 -8 -20 -14 -27 -14 -50 0 -326 -179 -311 -203 3 -5 1 -7 -4
-4 -13 8 -95 -97 -85 -108 4 -5 2 -5 -5 -1 -7 3 -14 -2 -18 -13 -6 -19 -7 -19
-58 3 -29 13 -70 27 -92 31 -22 5 -47 10 -55 13 -41 12 -259 13 -300 1 -25 -7
-48 -12 -52 -11 -4 1 -19 -3 -33 -8 -30 -11 -34 3 -9 38 8 12 13 22 10 22 -8
0 44 114 61 133 9 9 13 17 10 17 -9 0 40 70 61 87 10 9 11 11 2 7 -17 -8 7 23
51 67 14 14 24 30 22 36 -2 6 1 15 8 19 8 5 9 3 4 -6 -5 -9 -4 -11 3 -6 7 4
12 14 12 22 0 8 5 12 10 9 6 -3 10 1 10 10 0 9 5 13 10 10 6 -3 14 4 19 17 4
13 11 22 15 20 4 -2 18 6 33 18 14 11 22 20 17 20 -5 0 4 8 20 18 27 16 36 16
90 5 33 -6 64 -10 68 -7z"/>
<path d="M4123 4365 c0 -8 4 -12 9 -9 5 3 6 10 3 15 -9 13 -12 11 -12 -6z"/>
<path d="M4694 4348 c-4 -7 -3 -10 1 -5 5 4 18 -1 29 -10 21 -18 21 -18 2 5
-22 26 -23 26 -32 10z"/>
<path d="M2303 4275 c0 -8 4 -12 9 -9 5 3 6 10 3 15 -9 13 -12 11 -12 -6z"/>
<path d="M5390 4236 c0 -2 8 -10 18 -17 15 -13 16 -12 3 4 -13 16 -21 21 -21
13z"/>
<path d="M866 4051 c-211 -346 -352 -813 -325 -1076 34 -332 128 -630 294
-925 31 -56 59 -100 60 -98 2 2 -6 33 -19 68 -84 231 -119 626 -81 917 14 99
14 139 4 253 -26 293 14 609 110 881 17 46 28 85 27 87 -2 1 -33 -47 -70 -107z
m-42 -158 c-1 -16 -3 -28 -4 -28 -2 0 -2 -2 -24 -118 -29 -146 -36 -344 -25
-657 2 -66 -1 -150 -9 -198 -9 -58 -11 -144 -7 -280 3 -108 5 -209 5 -224 0
-16 3 -28 7 -28 5 0 9 -15 10 -33 4 -64 8 -92 16 -104 11 -17 -1 -16 -18 1 -8
7 -11 16 -8 19 3 4 -3 19 -13 34 -30 45 -116 299 -140 413 -5 19 -8 37 -9 40
-2 11 -18 107 -21 130 -12 80 -15 278 -6 328 7 31 14 73 17 92 9 59 27 134 37
154 7 14 7 16 -2 11 -9 -6 -9 -3 -2 12 6 11 25 59 41 109 17 49 34 96 38 104
3 8 7 20 9 25 7 28 50 120 57 123 4 2 7 10 7 17 0 12 38 85 44 85 1 0 1 -12 0
-27z"/>
<path d="M3510 4125 c0 -4 11 -20 25 -37 38 -45 93 -148 120 -225 34 -100 48
-194 43 -293 l-5 -88 46 -6 c59 -8 162 -52 237 -101 73 -49 189 -163 237 -234
l36 -54 12 29 c60 154 82 270 82 439 0 82 -7 165 -18 225 -22 115 -29 123
-181 202 -121 63 -230 103 -341 124 -87 16 -293 30 -293 19z m275 -51 c55 -9
121 -25 146 -35 25 -11 50 -19 55 -18 5 2 28 -7 51 -19 23 -12 49 -22 56 -22
8 0 20 -7 27 -15 7 -9 15 -13 18 -11 2 3 11 -2 19 -10 8 -8 19 -12 24 -9 5 4
9 2 9 -3 0 -12 47 -43 68 -46 8 -2 17 -9 18 -17 2 -8 10 -49 18 -92 18 -90 22
-334 6 -418 -5 -30 -20 -89 -32 -132 l-22 -78 -24 28 c-13 16 -35 43 -49 60
-14 18 -29 30 -34 27 -5 -3 -8 -2 -7 3 2 4 -5 19 -15 33 -9 13 -17 20 -17 15
0 -6 -5 -3 -10 6 -15 25 -150 113 -205 134 -28 11 -52 22 -55 26 -5 7 -64 22
-89 23 -11 1 -14 27 -16 121 -3 98 -8 136 -30 205 -27 85 -78 193 -102 218
-16 17 -17 39 0 45 15 5 65 0 192 -19z"/>
<path d="M3300 4081 c-190 -62 -312 -153 -404 -299 l-27 -43 24 -19 c35 -28
84 -107 98 -160 36 -137 -78 -235 -175 -150 -53 47 -70 102 -64 211 l6 91 -52
24 c-129 60 -326 70 -485 24 -118 -34 -111 -23 -111 -159 0 -191 55 -358 155
-469 l45 -50 39 20 c77 38 192 39 248 3 12 -8 30 -29 39 -47 15 -29 15 -34 0
-65 -9 -18 -30 -42 -48 -54 -46 -28 -162 -23 -232 11 l-49 24 -54 -58 c-97
-104 -156 -257 -168 -434 -9 -132 -4 -142 91 -174 118 -40 245 -55 351 -39 47
6 113 23 148 37 l62 25 -9 47 c-32 167 81 324 191 267 89 -46 78 -184 -25
-294 l-53 -57 31 -55 c50 -88 168 -197 273 -251 82 -42 179 -78 212 -78 17 0
113 130 148 200 61 120 91 259 79 356 -6 51 -6 52 -46 57 -22 3 -69 20 -105
37 -75 37 -123 99 -123 158 0 50 54 102 107 102 62 0 137 -50 184 -122 21 -34
39 -67 39 -75 0 -31 126 -3 239 54 86 43 210 155 278 250 l45 63 -23 37 c-117
194 -302 335 -480 367 -34 6 -37 4 -49 -24 -34 -83 -121 -160 -195 -174 -74
-14 -145 49 -131 118 12 57 51 102 118 135 35 16 84 33 109 36 42 6 48 10 53
37 18 90 0 223 -45 338 -33 83 -136 244 -159 247 -8 1 -53 -10 -100 -26z m120
-43 c22 -23 40 -47 40 -54 0 -7 6 -19 14 -26 29 -30 105 -205 83 -191 -7 4 -6
-1 2 -10 8 -10 15 -55 18 -121 l6 -104 -29 -15 c-16 -8 -39 -13 -51 -11 -12 2
-28 -2 -35 -9 -7 -6 -19 -12 -25 -13 -30 -2 -34 -5 -28 -14 3 -5 0 -10 -7 -10
-16 0 -80 -65 -98 -99 -7 -13 -13 -44 -14 -69 -1 -37 3 -51 26 -76 16 -17 31
-29 35 -28 3 2 9 -1 12 -7 4 -6 25 -14 48 -17 42 -6 96 11 130 40 10 9 33 28
51 42 17 14 32 30 32 35 0 5 9 18 20 29 11 11 20 27 20 36 0 13 7 15 43 10 54
-9 148 -41 156 -54 3 -5 24 -19 46 -31 22 -11 35 -21 30 -21 -6 0 4 -8 22 -16
18 -9 41 -32 53 -51 13 -22 25 -32 33 -27 6 4 9 4 5 0 -3 -4 0 -15 8 -24 7
-10 21 -26 30 -37 8 -11 12 -13 8 -5 -4 8 -4 12 0 8 4 -3 8 -10 9 -15 0 -4 13
-26 28 -48 26 -39 27 -41 11 -69 -10 -16 -26 -39 -37 -52 -50 -56 -126 -134
-131 -134 -2 0 -17 -11 -32 -25 -15 -14 -39 -31 -54 -38 -16 -6 -28 -15 -28
-19 0 -4 -9 -5 -19 -3 -11 2 -25 -3 -32 -11 -17 -20 -54 -41 -44 -24 5 9 3 9
-11 2 -11 -5 -36 -12 -56 -16 -37 -7 -38 -6 -74 51 -43 67 -83 107 -136 134
-43 22 -71 24 -119 7 -91 -31 -118 -112 -69 -204 15 -27 32 -48 39 -46 7 1 9
-2 6 -8 -4 -7 2 -14 13 -17 11 -3 23 -11 26 -19 3 -8 14 -14 23 -14 10 0 29
-7 41 -16 13 -9 32 -14 43 -11 10 3 17 1 13 -4 -3 -5 4 -9 15 -9 15 0 22 -7
23 -22 5 -64 4 -117 -3 -148 -4 -19 -10 -46 -12 -60 -3 -14 -15 -48 -28 -74
-12 -27 -22 -54 -22 -62 0 -7 -4 -11 -9 -8 -4 3 -8 0 -8 -6 0 -17 -77 -131
-100 -147 -11 -8 -17 -19 -13 -26 5 -8 2 -8 -9 0 -8 7 -18 10 -21 6 -4 -3 -13
0 -21 6 -8 7 -21 9 -27 5 -8 -4 -9 -3 -5 4 4 7 1 12 -9 12 -19 0 -100 37 -136
61 -14 10 -29 16 -33 12 -3 -3 -6 0 -6 7 0 7 -3 10 -7 7 -3 -4 -12 2 -20 13
-8 11 -20 20 -28 20 -17 0 -37 34 -27 45 4 5 2 5 -5 2 -12 -8 -89 78 -112 125
-12 23 -12 29 0 41 68 70 93 116 109 198 12 60 -2 110 -40 146 -17 15 -33 28
-38 28 -4 1 -18 7 -31 14 -17 9 -21 10 -16 1 5 -9 1 -10 -14 -5 -12 4 -21 2
-21 -4 0 -6 -6 -8 -13 -5 -20 7 -88 -68 -108 -119 -11 -29 -19 -77 -20 -131
-1 -48 -4 -84 -7 -81 -3 2 -10 1 -16 -4 -70 -55 -338 -62 -469 -12 -15 6 -39
13 -53 15 -15 3 -29 7 -32 10 -3 3 -5 50 -5 103 1 100 20 203 49 270 10 21 16
41 16 46 -1 4 3 7 10 7 6 0 9 3 5 6 -3 3 3 15 13 27 11 11 17 23 15 27 -2 4
15 26 39 49 43 43 60 46 104 23 12 -7 22 -10 22 -6 0 3 7 1 15 -6 20 -17 134
-17 165 0 14 8 28 13 32 12 16 -4 64 70 66 102 3 47 -32 102 -82 128 -53 28
-151 28 -221 1 -51 -21 -75 -20 -75 0 0 7 -10 22 -23 33 -32 31 -83 138 -108
230 -18 62 -22 102 -21 184 2 58 7 106 12 108 6 2 7 8 4 14 -3 5 0 8 7 7 8 -2
47 5 87 14 108 26 207 31 292 17 41 -7 82 -14 90 -15 8 -1 26 -7 40 -13 14 -6
32 -12 40 -15 12 -4 15 -22 13 -93 -1 -56 3 -94 10 -103 10 -12 9 -13 -3 -6
-12 6 -13 5 -2 -6 6 -7 12 -20 12 -29 0 -9 9 -26 20 -38 12 -12 17 -22 13 -22
-4 0 12 -14 36 -31 46 -35 115 -44 132 -18 5 8 9 10 9 6 0 -5 7 -1 16 7 8 9
21 13 27 9 7 -3 9 -3 5 2 -4 4 -2 15 5 23 10 13 9 14 -2 7 -9 -5 -7 3 5 21 28
39 25 116 -7 181 -13 26 -22 52 -21 56 1 5 -2 6 -8 2 -5 -3 -10 -2 -10 3 0 5
-12 22 -26 37 -15 17 -23 34 -19 44 3 9 6 17 6 19 -1 1 7 10 17 20 35 38 50
60 45 66 -4 3 1 6 11 6 9 0 14 5 11 10 -3 6 -1 10 5 10 6 0 23 11 38 26 34 32
179 114 201 114 9 0 22 5 28 11 6 6 26 13 44 15 19 3 38 10 44 15 13 13 12 13
55 -33z"/>
<path d="M4955 4005 c91 -278 109 -636 46 -941 -17 -84 -18 -96 -3 -170 20
-105 23 -497 4 -604 -18 -100 -60 -265 -78 -308 -8 -19 -13 -37 -11 -38 6 -6
121 156 175 247 152 253 284 658 269 823 -17 184 -101 466 -196 660 -53 109
-222 380 -206 331z m95 -191 c0 -8 4 -14 8 -14 5 0 19 -22 32 -50 13 -27 28
-50 33 -50 6 0 7 -3 4 -7 -4 -3 -3 -11 2 -17 11 -14 92 -200 95 -218 1 -7 14
-52 30 -100 28 -89 32 -106 42 -168 3 -19 8 -38 11 -42 9 -16 18 -107 17 -183
-1 -73 -47 -298 -75 -360 -4 -11 -20 -50 -33 -87 -30 -82 -126 -280 -141 -290
-5 -4 -11 -12 -11 -18 -1 -5 -2 -13 -3 -17 -1 -5 -17 -27 -36 -51 -26 -33 -33
-38 -32 -23 1 12 5 21 10 21 5 0 7 8 4 19 -2 10 -1 25 4 33 5 8 11 37 13 64 3
27 10 81 15 119 17 116 13 336 -9 478 -15 101 -18 137 -9 170 28 114 39 202
44 362 5 152 -16 399 -36 437 -7 14 -6 16 6 12 8 -4 15 -12 15 -20z"/>
<path d="M1330 3924 c-183 -210 -333 -498 -401 -769 -21 -81 -21 -94 -10 -164
29 -170 123 -425 218 -586 70 -119 237 -340 218 -290 -15 43 -43 225 -50 325
-9 142 9 326 47 469 37 138 37 141 10 256 -34 145 -47 324 -34 470 12 125 45
304 64 338 20 38 1 23 -62 -49z m-6 -91 c-1 -21 -5 -49 -9 -63 -15 -69 -21
-200 -14 -330 10 -178 14 -213 40 -317 11 -46 18 -87 15 -91 -8 -14 -47 -165
-52 -202 -2 -19 -9 -60 -15 -91 -7 -35 -9 -128 -5 -250 3 -107 5 -205 6 -218
0 -13 5 -30 11 -37 8 -9 8 -14 1 -14 -6 0 -20 16 -32 35 -12 19 -26 35 -31 35
-5 0 -8 3 -7 8 2 4 -16 34 -39 67 -22 34 -51 83 -64 110 -13 28 -28 53 -33 57
-6 4 -8 8 -3 8 4 0 -1 17 -12 38 -10 20 -19 40 -20 45 0 4 -7 20 -14 35 -15
28 -55 137 -62 169 -3 10 -9 38 -16 63 -6 25 -13 54 -16 65 -14 60 -21 135
-12 129 4 -2 7 4 7 13 -1 10 7 45 16 78 10 33 18 67 19 75 1 8 8 26 15 38 8
13 11 26 8 29 -3 4 -1 12 4 19 6 6 12 20 14 31 2 10 18 49 36 86 17 36 31 70
32 74 0 4 9 20 19 35 10 14 19 31 19 37 0 6 3 11 8 11 4 0 21 23 37 51 31 52
143 209 149 209 2 0 2 -17 0 -37z"/>
<path d="M5375 3965 c84 -285 116 -562 95 -827 -6 -84 -10 -193 -8 -243 5
-155 -2 -346 -18 -465 -17 -131 -63 -330 -93 -410 -29 -77 -19 -73 19 7 130
275 212 563 239 845 23 230 -36 597 -140 879 -36 99 -108 262 -94 214z m151
-502 c10 -43 17 -81 16 -85 -1 -4 6 -38 15 -75 22 -87 25 -504 5 -598 -7 -33
-15 -69 -16 -80 -2 -11 -14 -56 -26 -100 -12 -44 -23 -93 -26 -109 -3 -29 -14
-49 -14 -27 0 7 -5 9 -12 5 -10 -6 -10 -4 -2 7 6 8 11 21 11 29 1 8 4 47 8 85
6 63 7 279 1 425 -1 30 2 73 6 95 9 47 11 446 2 481 -4 13 -2 24 4 24 5 0 18
-35 28 -77z m-46 -1103 c0 -5 -5 -10 -11 -10 -5 0 -7 5 -4 10 3 6 8 10 11 10
2 0 4 -4 4 -10z"/>
<path d="M4415 3786 c3 -11 10 -67 16 -124 19 -190 -19 -433 -94 -595 l-35
-76 28 -69 c63 -155 75 -228 75 -452 0 -133 -4 -219 -12 -244 -7 -22 -11 -42
-9 -44 10 -9 198 193 259 278 77 109 172 294 217 424 l31 90 -30 101 c-55 186
-141 360 -253 509 -61 81 -202 228 -193 202z m104 -135 c14 -13 25 -27 24 -32
-2 -5 1 -9 6 -9 10 0 27 -39 23 -52 -1 -5 1 -7 6 -6 13 2 42 -14 38 -21 -3 -4
13 -31 34 -59 22 -29 36 -52 32 -52 -4 0 -2 -4 3 -8 35 -24 159 -333 169 -419
3 -32 -30 -147 -60 -204 -8 -16 -12 -29 -9 -29 3 0 -5 -17 -19 -37 -14 -20
-23 -40 -20 -45 3 -4 0 -8 -6 -8 -6 0 -8 -4 -5 -10 3 -5 2 -10 -3 -10 -7 0
-36 -50 -33 -58 1 -1 -3 -8 -9 -15 -46 -56 -60 -76 -60 -86 0 -14 -35 -32 -45
-23 -5 4 -5 1 -1 -6 4 -7 13 -9 19 -5 17 10 -39 -60 -99 -123 -28 -30 -48 -57
-45 -60 3 -4 -1 -5 -9 -2 -10 3 -14 17 -13 44 5 97 4 260 -2 307 -9 72 -36
200 -45 212 -15 20 -50 151 -46 170 3 11 17 49 31 85 31 76 55 150 49 150 -3
0 0 8 5 19 6 10 13 47 17 82 3 35 10 81 14 102 4 21 6 88 3 149 -5 124 -9 120
56 59z"/>
<path d="M1934 3625 c-101 -69 -247 -218 -315 -322 -55 -84 -129 -232 -129
-257 0 -29 78 -197 131 -282 81 -128 232 -284 349 -357 l25 -16 1 83 c3 192
79 391 196 513 l40 41 -47 58 c-104 128 -154 270 -164 462 l-6 133 -81 -56z
m59 -97 c4 -68 8 -99 22 -155 3 -13 7 -33 10 -44 9 -42 38 -109 47 -109 5 0 6
-4 3 -10 -3 -5 -1 -10 4 -10 6 0 10 -3 9 -7 -2 -5 13 -32 32 -62 19 -30 42
-64 50 -76 13 -21 12 -27 -15 -67 -17 -23 -34 -46 -38 -49 -17 -12 -87 -146
-87 -166 0 -7 -5 -13 -11 -13 -5 0 -7 -5 -4 -10 4 -6 2 -16 -3 -23 -12 -15
-40 -144 -46 -217 -3 -30 -5 -56 -6 -57 0 -1 -15 7 -34 18 -49 29 -138 118
-130 131 4 6 3 8 -3 5 -11 -7 -104 89 -95 98 3 3 0 5 -6 5 -11 0 -28 38 -24
53 1 5 -2 6 -7 3 -5 -3 -15 2 -22 11 -10 12 -10 15 -1 9 7 -4 -1 13 -18 37
-16 25 -30 50 -30 56 0 6 -5 11 -12 11 -6 0 -9 3 -5 6 3 3 -6 27 -19 54 -35
70 -39 101 -18 141 11 19 19 39 19 45 0 6 6 19 14 28 7 9 10 16 7 16 -8 0 110
173 149 219 48 55 150 157 141 141 -4 -8 4 -3 18 13 14 15 29 27 34 27 4 0 17
7 28 16 10 8 13 12 5 8 -9 -5 -12 -3 -7 4 5 9 13 9 26 2 15 -8 19 -25 23 -82z"/>
<path d="M2842 3576 c3 -50 9 -71 25 -87 45 -46 57 6 19 87 -37 79 -49 79 -44
0z"/>
<path d="M446 3453 c-29 -142 -42 -627 -19 -757 5 -32 9 61 10 278 2 180 7
366 13 414 9 85 7 120 -4 65z"/>
<path d="M3501 3377 c-60 -24 -103 -69 -84 -88 17 -17 80 18 117 63 16 21 27
40 25 42 -2 3 -29 -5 -58 -17z"/>
<path d="M4060 3246 c0 -2 8 -10 18 -17 15 -13 16 -12 3 4 -13 16 -21 21 -21
13z"/>
<path d="M4127 3179 c7 -7 15 -10 18 -7 3 3 -2 9 -12 12 -14 6 -15 5 -6 -5z"/>
<path d="M2411 3031 c-10 -7 -2 -11 30 -16 54 -8 99 -4 102 10 3 13 -113 18
-132 6z"/>
<path d="M1432 2863 c-59 -276 -51 -496 29 -795 19 -73 28 -89 68 -129 26 -25
92 -75 147 -112 202 -134 428 -220 669 -252 l50 -7 -62 63 c-87 90 -168 208
-224 324 -47 99 -99 255 -99 300 0 18 -13 31 -56 56 -186 106 -377 317 -477
527 l-35 73 -10 -48z m48 -88 c0 -7 7 -18 15 -25 8 -7 13 -16 10 -20 -2 -4 4
-15 15 -25 11 -10 20 -22 20 -27 0 -10 38 -64 82 -116 16 -18 25 -38 22 -44
-4 -6 -3 -8 3 -5 5 3 25 -9 43 -28 19 -19 30 -35 26 -35 -5 0 -3 -7 4 -15 7
-8 17 -12 22 -9 5 3 24 -9 41 -28 28 -29 88 -73 168 -121 19 -11 29 -29 38
-74 17 -77 37 -135 71 -208 38 -82 43 -98 41 -112 -1 -6 6 -17 16 -25 10 -7
31 -33 47 -58 16 -25 38 -55 49 -67 11 -13 18 -23 14 -23 -3 0 8 -15 24 -32
44 -48 51 -64 29 -64 -10 0 -17 3 -15 7 2 3 -10 7 -28 8 -55 3 -70 6 -139 29
-77 24 -216 79 -238 93 -8 5 -27 15 -43 22 -15 7 -24 16 -20 20 3 4 -3 7 -15
7 -11 0 -24 4 -27 10 -3 5 -22 17 -41 26 -20 9 -49 31 -67 48 -17 17 -28 25
-23 19 5 -9 2 -11 -8 -7 -9 3 -13 10 -10 15 3 5 -1 9 -8 9 -26 0 -80 65 -99
120 -18 50 -55 209 -65 285 -8 56 -7 360 1 395 5 19 9 44 11 55 1 11 3 21 3
22 3 8 31 -12 31 -22z"/>
<path d="M4206 2840 c-53 -69 -172 -178 -239 -219 -75 -44 -166 -80 -237 -93
l-59 -11 5 -66 c11 -141 -43 -319 -144 -470 -31 -47 -59 -90 -61 -95 -6 -14
264 0 347 18 112 24 216 62 322 117 52 27 103 55 112 62 18 15 40 93 58 209
20 122 8 351 -23 470 -36 138 -36 137 -81 78z m42 -26 c-3 -3 1 -26 9 -52 8
-26 18 -63 21 -82 9 -49 8 -376 0 -425 -20 -116 -28 -134 -71 -164 -35 -24
-165 -90 -189 -96 -5 -2 -11 -4 -15 -5 -5 -1 -11 -2 -15 -1 -5 0 -8 -3 -8 -7
0 -5 -6 -9 -12 -10 -7 0 -49 -10 -93 -21 -111 -29 -219 -43 -293 -39 l-64 3
35 45 c20 24 34 47 31 51 -2 4 0 11 6 14 18 11 71 137 91 215 10 41 22 117 25
168 5 71 10 92 20 88 7 -3 16 -1 19 4 3 5 12 7 20 3 9 -3 22 0 30 7 8 7 15 9
15 5 0 -4 7 -2 15 5 8 7 15 10 15 6 0 -8 59 22 84 43 16 13 18 13 11 1 -4 -8
3 -5 16 6 13 12 38 28 54 37 17 8 45 29 62 46 18 17 38 31 45 31 6 0 9 2 6 5
-6 7 112 125 125 125 6 0 8 -2 5 -6z"/>
<path d="M1536 2808 c3 -5 10 -6 15 -3 13 9 11 12 -6 12 -8 0 -12 -4 -9 -9z"/>
<path d="M874 2610 c7 -322 67 -575 206 -866 43 -88 58 -110 127 -174 180
-168 345 -285 538 -380 96 -48 335 -144 335 -136 0 1 -36 31 -81 66 -218 172
-430 447 -545 707 -21 48 -47 94 -57 101 -36 27 -191 209 -252 297 -106 152
-205 351 -256 520 l-19 60 4 -195z m41 -17 c1 -10 14 -43 30 -73 16 -30 28
-58 27 -62 -1 -5 3 -8 10 -8 6 0 9 -3 5 -6 -3 -3 4 -23 17 -43 13 -20 26 -46
30 -58 4 -13 12 -23 17 -23 5 0 8 -4 6 -8 -1 -5 17 -34 41 -66 23 -31 42 -61
42 -66 0 -5 8 -15 19 -22 10 -7 18 -15 17 -18 -2 -12 32 -49 39 -42 5 4 5 2 2
-4 -3 -6 37 -55 89 -110 71 -75 99 -113 116 -156 12 -31 26 -54 30 -52 5 3 8
2 7 -3 -4 -15 13 -63 22 -63 5 0 8 -3 7 -7 -2 -7 19 -49 58 -114 6 -11 19 -29
30 -41 12 -14 14 -18 4 -13 -8 4 -1 -5 16 -21 17 -16 34 -38 38 -49 3 -11 21
-36 39 -56 18 -20 41 -47 51 -60 9 -13 14 -17 10 -9 -4 9 -3 12 2 7 5 -5 9
-12 9 -16 0 -13 40 -58 63 -70 12 -7 20 -16 17 -21 -3 -5 4 -11 15 -15 11 -4
18 -10 15 -15 -3 -5 4 -14 15 -20 11 -6 20 -17 20 -25 0 -12 -4 -12 -27 0 -16
8 -50 24 -78 37 -77 35 -205 110 -205 120 0 5 -4 6 -10 3 -5 -3 -10 -2 -10 3
0 4 -16 14 -35 22 -19 8 -35 17 -35 22 0 4 -8 8 -17 8 -9 0 -13 3 -10 7 4 3
-8 16 -27 27 -19 12 -62 46 -97 76 -34 30 -67 54 -72 52 -6 -2 -4 4 3 13 11
13 10 15 -4 9 -9 -3 -16 -1 -16 6 0 6 -4 8 -10 5 -5 -3 -10 -3 -10 2 0 4 -15
24 -34 45 -18 20 -43 49 -54 65 -23 33 -112 229 -117 258 -2 14 -13 42 -36 93
-11 24 -16 41 -11 38 5 -3 0 20 -10 50 -37 110 -83 445 -64 464 7 7 7 10 0 10
-6 0 -11 7 -11 15 0 21 20 1 22 -22z"/>
<path d="M4910 2766 c0 -25 -108 -232 -168 -321 -90 -134 -246 -299 -362 -382
-26 -19 -42 -42 -54 -77 -53 -151 -177 -354 -305 -501 -65 -75 -207 -205 -223
-205 -5 0 -8 -4 -8 -8 0 -11 191 38 292 74 184 66 416 200 576 334 61 51 79
73 104 128 75 169 129 359 153 541 17 124 20 431 5 431 -5 0 -10 -6 -10 -14z
m-7 -203 c-1 -49 -4 -110 -6 -138 -7 -87 -48 -298 -68 -353 -11 -30 -16 -58
-13 -64 4 -6 3 -8 -3 -5 -7 5 -30 -54 -32 -86 -1 -16 -77 -153 -89 -160 -7 -5
-9 -14 -6 -20 4 -7 4 -9 -1 -5 -4 4 -21 -6 -39 -22 -17 -17 -35 -30 -39 -30
-5 0 -5 -6 -1 -12 4 -7 4 -10 -1 -6 -4 4 -33 -13 -64 -37 -32 -25 -63 -45 -71
-45 -7 0 -10 -3 -7 -6 4 -4 -15 -18 -41 -32 -26 -13 -55 -31 -65 -40 -10 -9
-25 -16 -35 -17 -9 -1 -39 -16 -66 -33 -28 -18 -58 -32 -67 -32 -10 0 -20 -4
-23 -9 -3 -5 -22 -12 -41 -15 -22 -5 -33 -11 -29 -18 4 -6 3 -8 -3 -5 -6 4
-49 -6 -97 -22 -47 -16 -86 -27 -86 -26 0 2 34 37 76 79 41 42 73 76 70 76 -3
0 11 16 32 36 20 20 30 32 22 28 -8 -4 -4 6 10 22 14 16 28 30 33 32 4 2 7 10
7 18 0 8 5 14 10 14 6 0 10 6 10 14 0 8 4 16 8 18 4 2 19 18 32 37 13 19 17
31 9 26 -7 -4 -4 3 7 16 23 25 92 168 113 232 7 21 19 41 27 44 8 3 11 9 8 14
-3 5 1 9 9 9 8 0 29 16 48 35 19 19 40 35 47 35 7 0 10 5 7 10 -3 6 1 10 10
10 9 0 13 5 10 10 -3 6 -3 10 2 10 4 0 28 19 53 41 25 23 38 38 30 34 -8 -4
-2 4 14 19 16 14 33 26 38 26 5 0 6 5 3 10 -3 6 -1 10 6 10 7 0 10 3 7 6 -3 3
12 24 33 47 34 36 113 152 114 167 0 5 13 26 43 75 7 11 16 30 22 43 18 42 25
22 23 -65z"/>
<path d="M3400 2716 c0 -26 40 -63 91 -85 28 -12 53 -21 55 -18 9 8 -57 87
-85 102 -37 19 -61 19 -61 1z"/>
<path d="M5356 2568 c-4 -21 -22 -75 -41 -121 -104 -260 -253 -490 -450 -697
-34 -36 -83 -103 -109 -150 -157 -278 -384 -520 -676 -722 -41 -28 187 68 290
123 206 110 434 280 575 431 108 116 239 366 319 609 40 122 79 302 96 441 12
96 9 156 -4 86z m-52 -276 c-16 -94 -87 -313 -133 -412 -14 -30 -26 -59 -26
-65 -1 -5 -12 -30 -25 -55 -13 -25 -23 -48 -22 -52 1 -5 -3 -8 -9 -8 -5 0 -7
-4 -4 -10 3 -5 1 -10 -5 -10 -6 0 -9 -4 -6 -9 3 -5 0 -14 -7 -20 -7 -5 -24
-33 -37 -61 -13 -27 -27 -50 -32 -50 -4 0 -8 -6 -8 -12 -1 -23 -160 -180 -248
-244 -23 -17 -38 -35 -34 -39 4 -5 2 -5 -4 -2 -7 4 -17 0 -24 -8 -7 -8 -16
-12 -21 -9 -5 3 -8 0 -7 -7 2 -7 -10 -19 -27 -28 -16 -9 -34 -22 -38 -29 -4
-7 -24 -19 -43 -27 -18 -8 -34 -19 -34 -25 0 -6 -4 -8 -10 -5 -5 3 -10 2 -10
-4 0 -6 -11 -13 -25 -17 -14 -3 -25 -10 -25 -14 0 -5 -16 -14 -35 -20 -19 -6
-33 -15 -31 -18 2 -4 -7 -8 -21 -9 -14 0 -29 -6 -33 -13 -5 -8 -10 -9 -14 -2
-4 6 14 23 39 37 25 15 45 31 45 37 0 5 5 6 12 2 6 -4 8 -3 5 3 -5 8 48 69
161 185 15 16 24 28 20 28 -5 0 0 9 10 19 22 25 32 38 62 81 13 19 29 38 35
42 5 4 6 8 2 8 -4 0 1 10 12 21 11 12 28 38 37 58 9 20 20 38 23 41 15 13 35
43 23 36 -7 -4 -1 9 13 30 14 20 25 40 25 44 0 4 11 13 25 20 14 7 23 15 21
17 -2 2 23 30 55 63 32 33 55 60 51 60 -4 1 4 10 17 20 13 11 19 20 15 20 -5
0 -2 5 7 10 9 5 34 35 55 67 21 32 42 60 47 61 4 2 7 9 7 16 0 7 9 22 20 34
11 12 25 32 31 44 14 31 32 63 48 81 7 9 14 22 15 29 1 7 13 33 26 58 13 25
23 49 22 53 -1 5 2 6 8 2 6 -4 8 -21 4 -43z"/>
<path d="M2844 2545 c-26 -40 -44 -145 -24 -145 18 0 70 104 68 134 -4 39 -23
44 -44 11z"/>
<path d="M551 2460 c-1 -33 61 -277 98 -390 64 -190 179 -425 267 -545 150
-204 408 -437 658 -594 104 -66 138 -77 59 -21 -70 51 -246 223 -330 323 -67
81 -170 227 -236 337 -15 25 -59 83 -98 130 -154 185 -308 457 -384 675 -18
55 -34 93 -34 85z m172 -446 c4 3 5 3 2 0 -6 -9 27 -64 38 -64 4 0 6 -4 3 -9
-3 -5 1 -12 10 -15 8 -3 13 -10 10 -14 -3 -5 3 -18 12 -28 10 -10 20 -23 21
-29 6 -16 35 -59 51 -75 14 -14 14 -14 0 -6 -8 5 -3 -4 12 -20 51 -55 100
-114 95 -114 -2 0 11 -17 29 -37 19 -20 34 -43 34 -50 0 -7 9 -17 20 -23 11
-6 18 -15 15 -21 -4 -5 -1 -9 4 -9 6 0 10 -3 9 -7 -4 -13 23 -57 46 -76 11
-10 14 -16 6 -12 -8 4 -4 -3 10 -15 14 -12 19 -18 11 -14 -8 4 -2 -9 13 -29
16 -20 33 -37 38 -37 5 0 7 -4 4 -9 -4 -5 -3 -11 2 -13 4 -1 30 -32 57 -68 27
-36 54 -68 60 -72 6 -5 6 -8 -2 -8 -7 0 -26 15 -44 33 -17 17 -28 25 -24 17 4
-8 -23 17 -60 55 -38 39 -65 64 -60 56 5 -9 4 -12 -3 -7 -7 4 -12 12 -12 17 0
5 -19 29 -42 53 -24 24 -61 65 -83 91 -22 26 -47 55 -55 63 -8 9 -14 18 -13
21 1 3 -17 33 -40 66 -23 33 -41 62 -41 65 1 3 -10 22 -22 42 -13 21 -24 42
-24 48 0 5 -5 10 -12 10 -6 0 -9 3 -6 6 3 3 -12 43 -33 90 -21 46 -39 94 -39
105 0 13 -4 18 -12 13 -7 -4 -10 -4 -6 0 3 4 0 19 -7 33 -7 14 -11 33 -7 41 4
11 9 7 17 -17 6 -18 14 -30 18 -27z"/>
<path d="M2749 2239 c-8 -5 -50 -21 -94 -36 -72 -24 -94 -27 -220 -26 -121 0
-151 4 -220 25 -44 14 -88 28 -97 33 -16 7 -17 4 -2 -47 64 -216 163 -380 328
-540 l79 -78 57 0 c197 0 474 94 641 216 l63 47 -75 27 c-166 60 -333 194
-410 327 -27 47 -39 59 -50 52z m25 -61 c-2 -3 7 -20 21 -36 14 -16 25 -34 25
-39 0 -10 120 -125 170 -163 51 -39 127 -80 134 -73 3 4 6 1 6 -6 0 -7 5 -9
10 -6 6 3 10 1 10 -4 0 -6 3 -10 8 -9 4 1 17 -3 28 -10 12 -6 25 -8 30 -4 5 4
2 -1 -5 -10 -7 -10 -19 -18 -27 -18 -7 0 -20 -10 -28 -22 -9 -12 -16 -19 -16
-15 0 5 -7 1 -16 -7 -8 -9 -22 -16 -30 -16 -8 0 -14 -5 -14 -11 0 -6 -6 -9
-14 -6 -8 3 -16 2 -18 -2 -6 -15 -165 -73 -253 -92 -49 -10 -126 -22 -170 -25
-77 -6 -81 -5 -114 23 -51 42 -101 94 -146 147 -22 27 -44 54 -50 60 -16 18
-45 67 -65 112 -11 23 -27 47 -35 54 -8 7 -15 20 -15 29 0 9 -4 21 -8 26 -14
17 -46 125 -39 131 4 4 12 2 19 -3 30 -23 138 -38 268 -38 136 0 196 11 250
44 14 9 21 11 17 4 -5 -8 0 -8 19 2 20 10 29 11 39 2 7 -7 11 -15 9 -19z"/>
<path d="M2863 2145 c0 -8 4 -12 9 -9 5 3 6 10 3 15 -9 13 -12 11 -12 -6z"/>
<path d="M4150 1925 c-91 -48 -265 -103 -379 -120 -105 -16 -247 -19 -326 -6
l-49 8 -87 -67 c-87 -67 -216 -140 -319 -180 -80 -30 -248 -70 -300 -70 l-45
0 25 -20 c49 -38 227 -119 340 -154 153 -48 266 -66 440 -72 l145 -5 95 68
c195 140 373 346 480 554 28 54 50 99 48 99 -2 -1 -32 -16 -68 -35z m-27 -97
c-13 -28 -34 -60 -46 -70 -12 -11 -15 -16 -7 -12 14 7 -24 -43 -45 -58 -5 -4
-6 -8 -2 -8 5 0 -3 -15 -18 -32 -72 -87 -123 -144 -150 -167 -16 -14 -45 -42
-64 -61 -19 -19 -30 -28 -26 -20 4 8 -7 1 -26 -16 -19 -17 -41 -36 -49 -42 -8
-7 -31 -24 -50 -39 -19 -16 -30 -21 -25 -13 8 13 7 13 -9 0 -22 -18 -181 -24
-276 -10 -36 5 -83 11 -105 14 -83 11 -105 15 -122 24 -10 5 -38 13 -63 17
-25 4 -51 12 -59 19 -8 6 -16 10 -17 9 -2 -1 -21 5 -41 13 -150 62 -200 93
-152 95 13 1 27 1 32 0 4 -1 23 5 42 13 19 8 35 13 35 11 0 -6 102 25 125 38
11 6 22 12 25 12 3 0 15 6 28 13 12 7 22 10 22 6 0 -3 7 0 16 7 9 7 23 14 31
15 8 2 23 10 34 19 10 10 27 15 38 12 15 -4 19 0 16 14 -2 11 0 17 4 15 5 -3
16 3 26 14 10 11 21 17 26 15 4 -3 14 4 22 15 7 11 17 17 20 13 4 -3 7 -1 7 5
0 7 6 12 13 12 7 0 24 13 37 28 22 26 28 28 60 20 47 -11 249 -9 335 4 39 6
78 10 88 10 9 -1 15 3 12 7 -2 5 14 12 38 17 55 10 61 11 67 14 3 1 15 3 28 6
12 2 33 11 46 19 12 8 26 12 29 8 4 -3 7 -1 7 6 0 7 4 10 8 7 4 -2 14 -1 22 5
34 20 37 7 13 -43z"/>
<path d="M4876 1908 c3 -5 10 -6 15 -3 13 9 11 12 -6 12 -8 0 -12 -4 -9 -9z"/>
<path d="M1535 1861 c-3 -5 -2 -12 3 -15 5 -3 9 1 9 9 0 17 -3 19 -12 6z"/>
<path d="M1545 1821 c-3 -5 -2 -12 3 -15 5 -3 9 1 9 9 0 17 -3 19 -12 6z"/>
<path d="M5292 1721 c-30 -48 -87 -127 -128 -177 -40 -49 -99 -125 -131 -169
-70 -96 -217 -271 -241 -284 -9 -6 -12 -11 -6 -11 18 0 222 216 304 321 104
134 270 393 259 403 -2 2 -28 -36 -57 -83z"/>
<path d="M1601 1733 c49 -88 125 -201 185 -274 120 -148 324 -325 483 -419 82
-49 147 -60 366 -60 178 0 312 16 467 55 99 26 318 104 318 115 0 3 -33 6 -73
8 -232 9 -542 114 -756 256 l-96 63 -100 6 c-245 13 -540 115 -759 262 l-68
46 33 -58z m95 -64 c3 -5 14 -9 25 -9 11 0 17 -4 14 -10 -4 -6 5 -10 20 -10
15 0 24 -4 20 -10 -3 -5 -1 -10 5 -10 6 0 30 -9 53 -19 23 -11 47 -20 52 -22
6 -1 30 -12 54 -25 25 -12 50 -20 58 -17 7 3 13 1 13 -4 0 -10 51 -28 109 -38
19 -3 38 -8 43 -11 5 -3 26 -8 46 -10 49 -6 81 -11 116 -19 16 -3 61 -7 100
-9 68 -2 105 -16 144 -53 6 -6 21 -15 32 -18 11 -4 18 -10 15 -15 -3 -5 8 -11
25 -15 16 -4 30 -11 30 -16 0 -6 5 -7 10 -4 6 3 10 2 10 -3 0 -13 50 -33 62
-26 6 4 8 3 5 -3 -4 -6 23 -22 61 -37 37 -15 82 -34 100 -42 18 -8 37 -12 42
-9 4 3 10 1 12 -3 4 -12 119 -43 131 -35 5 3 12 1 16 -5 6 -10 69 -20 134 -22
30 0 14 -22 -29 -38 -107 -38 -299 -79 -419 -87 -99 -7 -410 -3 -410 5 0 1
-13 4 -30 6 -16 3 -39 13 -49 22 -15 13 -17 13 -11 2 4 -8 -3 -5 -17 8 -13 12
-28 19 -33 15 -4 -5 -5 -2 -1 5 4 7 0 15 -11 19 -45 17 -151 93 -196 141 -17
17 -34 32 -38 32 -5 0 -36 27 -69 60 -33 33 -58 60 -54 60 4 0 -13 19 -37 43
-25 24 -48 51 -52 61 -4 10 -12 14 -18 10 -7 -4 -9 -3 -6 3 4 6 -4 22 -18 37
-13 15 -24 29 -24 32 0 3 -11 19 -25 37 -14 17 -26 35 -26 40 0 6 -8 16 -17
23 -16 12 -16 12 5 7 12 -3 25 -9 28 -14z"/>
<path d="M995 1751 c-3 -5 -2 -12 3 -15 5 -3 9 1 9 9 0 17 -3 19 -12 6z"/>
<path d="M5235 1749 c-4 -6 -5 -12 -2 -15 2 -3 7 2 10 11 7 17 1 20 -8 4z"/>
<path d="M3010 1626 c0 -2 7 -7 16 -10 8 -3 12 -2 9 4 -6 10 -25 14 -25 6z"/>
<path d="M4515 1463 c-104 -71 -312 -172 -446 -217 -117 -39 -276 -74 -378
-83 -50 -5 -81 -15 -134 -46 -88 -49 -195 -95 -317 -135 -179 -59 -308 -82
-515 -91 l-150 -6 112 -37 c225 -73 412 -102 663 -102 225 1 323 15 419 60
249 116 516 322 688 528 71 85 149 187 141 185 -2 0 -39 -25 -83 -56z m-47
-74 c-10 -5 -18 -14 -18 -20 0 -14 -171 -184 -182 -181 -5 1 -7 -2 -3 -8 3 -5
1 -10 -5 -10 -6 0 -8 -5 -4 -12 4 -6 3 -8 -4 -4 -6 3 -20 -6 -31 -20 -12 -15
-21 -23 -21 -19 0 4 -9 -3 -20 -16 -10 -13 -19 -20 -20 -15 0 5 -8 0 -17 -10
-10 -11 -47 -40 -83 -65 -36 -24 -73 -53 -82 -64 -10 -11 -17 -16 -18 -11 0 4
-12 1 -26 -9 -18 -12 -24 -13 -19 -4 3 8 -1 5 -10 -6 -9 -11 -19 -20 -23 -21
-21 -2 -60 -28 -55 -37 3 -6 1 -7 -5 -3 -6 4 -33 -4 -59 -18 -98 -49 -161 -58
-413 -58 -184 -1 -250 5 -395 32 -139 27 -181 40 -165 50 8 5 17 7 21 4 10 -6
169 15 209 28 19 6 44 12 55 14 20 2 60 12 168 39 15 4 27 11 27 17 0 5 4 7 8
4 5 -3 19 1 33 8 13 6 45 18 71 25 28 8 45 18 41 24 -3 5 -1 7 4 4 15 -9 126
47 116 58 -4 4 -2 5 6 0 7 -4 16 -3 20 2 11 18 72 42 88 36 9 -4 14 -2 11 3
-4 5 10 8 30 8 21 -1 42 1 47 5 6 4 22 7 38 6 15 0 27 2 27 5 0 4 10 6 23 5
26 -2 160 30 202 49 17 8 46 16 66 20 19 3 74 26 122 50 47 24 84 39 81 35 -3
-5 13 1 36 13 22 12 40 26 40 30 0 5 5 6 10 3 6 -3 10 -1 10 6 0 7 3 9 6 6 4
-3 18 3 32 13 13 11 30 20 36 20 6 0 3 -5 -6 -11z"/>
<path d="M1379 1281 c75 -86 235 -242 316 -307 197 -157 459 -303 603 -334
297 -65 595 -71 902 -19 69 12 132 26 140 31 10 6 4 7 -21 3 -50 -7 -263 12
-387 36 -190 37 -387 102 -545 181 -47 23 -114 46 -170 58 -182 38 -370 105
-539 192 -108 55 -294 173 -317 201 -7 9 -18 17 -23 17 -6 0 13 -27 41 -59z
m158 -117 c-3 -3 -12 -4 -19 -1 -8 3 -5 6 6 6 11 1 17 -2 13 -5z m131 -73 c35
-17 69 -28 75 -24 5 3 7 2 4 -4 -7 -11 18 -24 103 -55 30 -11 70 -26 88 -34
18 -8 37 -12 42 -9 6 3 10 2 10 -3 0 -11 157 -55 170 -47 6 3 10 2 10 -2 0 -5
28 -14 63 -20 68 -12 99 -23 137 -50 18 -14 22 -14 15 -3 -7 12 -4 12 11 -1
26 -23 82 -50 108 -53 11 -2 46 -15 76 -29 58 -26 146 -53 265 -80 69 -16 106
-23 195 -36 43 -7 41 -7 -40 -16 -97 -10 -361 -9 -435 1 -27 4 -66 8 -85 10
-19 1 -55 8 -80 14 -25 6 -60 12 -77 12 -18 0 -33 3 -33 7 0 4 -6 8 -12 8 -35
2 -70 15 -148 55 -150 79 -175 93 -178 101 -2 4 -8 7 -13 7 -9 0 -113 69 -173
115 -18 14 -38 25 -45 25 -7 0 -10 3 -8 8 3 4 -11 18 -30 32 -53 38 -123 111
-117 122 3 5 13 3 22 -5 10 -8 46 -29 80 -46z"/>
<path d="M4840 1096 c0 -2 8 -10 18 -17 15 -13 16 -12 3 4 -13 16 -21 21 -21
13z"/>
<path d="M4560 1008 c-81 -59 -357 -191 -495 -237 -66 -21 -173 -51 -237 -65
-65 -15 -137 -35 -160 -45 -216 -92 -549 -160 -786 -162 -148 -1 -104 -14 97
-29 320 -25 669 17 894 106 137 54 328 154 447 233 107 71 292 215 298 232 5
13 3 12 -58 -33z m-261 -181 c-2 -1 -13 -9 -24 -17 -19 -14 -19 -14 -6 3 7 9
18 17 24 17 6 0 8 -1 6 -3z m-64 -39 c-11 -6 -31 -20 -44 -32 -13 -11 -21 -15
-16 -7 8 13 -27 -5 -74 -41 -13 -10 -31 -18 -40 -18 -10 0 -22 -5 -29 -12 -6
-6 -17 -13 -24 -14 -7 -1 -37 -13 -67 -28 -30 -14 -61 -26 -68 -26 -7 0 -28
-9 -48 -20 -19 -11 -35 -17 -35 -15 0 3 -16 -1 -35 -9 -19 -8 -35 -13 -35 -11
0 2 -23 -3 -52 -11 -28 -9 -68 -18 -87 -20 -88 -10 -109 -13 -156 -18 -80 -9
-248 -16 -242 -10 3 3 23 7 44 9 21 2 53 8 72 14 19 6 38 8 42 5 5 -3 9 -2 9
3 0 4 15 9 33 10 17 1 46 7 62 14 17 7 36 11 43 10 6 -1 12 3 12 9 0 6 4 9 9
5 5 -3 34 6 65 20 30 14 61 25 68 25 7 0 33 9 57 21 25 11 63 21 86 24 22 2
53 8 67 14 14 5 29 7 32 4 3 -4 6 -1 6 6 0 7 8 11 18 10 25 -3 92 12 92 21 0
5 10 6 22 2 16 -4 19 -2 13 8 -5 9 -4 11 3 6 10 -6 46 6 146 48 15 6 38 13 50
13 21 2 21 2 1 -9z"/>
<path d="M4026 868 c3 -5 10 -6 15 -3 13 9 11 12 -6 12 -8 0 -12 -4 -9 -9z"/>
<path d="M4461 846 c-9 -10 -8 -15 2 -19 8 -3 13 3 13 14 0 23 0 23 -15 5z"/>
<path d="M1773 715 c28 -21 259 -123 367 -162 101 -37 254 -80 382 -107 59
-13 82 -15 95 -6 17 11 17 11 0 6 -29 -9 -208 40 -377 104 -41 16 -127 45
-190 65 -63 20 -153 54 -199 76 -88 41 -108 47 -78 24z"/>
<path d="M1800 660 c-9 -6 -10 -10 -3 -10 6 0 15 5 18 10 8 12 4 12 -15 0z"/>
<path d="M2235 471 c-3 -5 -2 -12 3 -15 5 -3 9 1 9 9 0 17 -3 19 -12 6z"/>
</g>
</svg>
